<?xml version="1.0" encoding="UTF-8"?>
<svg id="Layer_1" data-name="Layer 1" xmlns="http://www.w3.org/2000/svg" viewBox="0 0 969.57 141.74">
  <defs>
    <style>
      .cls-1 {
        stroke: #000;
        stroke-miterlimit: 10;
        stroke-width: 10px;
      }
    </style>
  </defs>
  <path class="cls-1" d="M31.03,102.54c-.9,1.1-1.8,2.1-2.7,3-.9.9-1.5,2-1.8,3.3-.7,2.1-1.68,4.27-2.93,6.52-1.25,2.25-2.28,3.72-3.07,4.43l-.3.75c-.1.5-.28,1.2-.52,2.1-.25.9-.53,1.88-.83,2.93-.3,1.05-.63,2.05-.97,3-.35.95-.63,1.62-.83,2.02l-1.35,2.4c-.1.1-.22.32-.38.68-.15.35-.33.62-.52.82l-2.25,1.5c-.3.4-1.05.62-2.25.68-1.2.05-2.15.07-2.85.07-1.3-.7-2.1-2-2.4-3.9-.2-1.7-.03-3.6.52-5.7.55-2.1,1.17-3.95,1.88-5.55l1.35-2.55c.2-.8.72-1.7,1.58-2.7.85-1,1.82-2.2,2.92-3.6.6-1.1,1.25-2.2,1.95-3.3.7-1.1,1.45-2.2,2.25-3.3,1.1-1.7,2.17-3.4,3.22-5.1,1.05-1.7,1.92-3.4,2.62-5.1.4-1.4.87-2.85,1.42-4.35.55-1.5,1.17-3,1.88-4.5l1.2-4.05.9-3.6,1.2-2.1c.6-.6,1.1-1.15,1.5-1.65.4-.5.77-1,1.12-1.5.35-.5.62-.95.83-1.35.2-.3.38-.57.53-.82.15-.25.32-.47.52-.68.2-.3.4-.55.6-.75l3.3-3.45v-.9l1.5-3.45,3.15-6,1.35-2.4.9-1.8.75-3.9v-1.05c0-.1.05-.25.15-.45l1.2-3,1.35-1.05c.3-.5.55-1,.75-1.5.2-.5.4-1,.6-1.5l.45-.75c.1-.3.25-.68.45-1.12.2-.45.5-.92.9-1.43,0-.1.02-.2.08-.3.05-.1.08-.25.08-.45.2-.7.27-1.25.22-1.65-.05-.4.02-.9.22-1.5,0-.2.12-.52.38-.98.25-.45.47-.77.68-.98l1.2-4.2c.8-1.9,1.9-3.98,3.3-6.23,1.4-2.25,2.5-4.07,3.3-5.48,1-.8,2.15-1.22,3.45-1.27,1.3-.05,2.5.28,3.6.98.7.3,1.07.73,1.12,1.27.05.55-.05,1.15-.3,1.8-.25.65-.6,1.3-1.05,1.95-.45.65-.83,1.27-1.12,1.88-.2.5-.55,1-1.05,1.5,0,1.7-.22,3.2-.67,4.5-.45,1.3-1.08,2.8-1.88,4.5l-1.05,1.35-2.85,6.15-.15.3.15.3c0,.2.45.75,1.35,1.65l1.5,1.5,1.2,2.4c.2.5.4.95.6,1.35.4.9.65,1.75.75,2.55l2.25,4.35,1.5,1.95.6,2.85.75,4.65c0,.2.1.63.3,1.27.2.65.42,1.35.67,2.1.25.75.5,1.5.75,2.25.25.75.47,1.27.67,1.57.1.1.27.35.53.75.25.4.57.88.97,1.43.4.55.8,1.08,1.2,1.57.4.5.75.9,1.05,1.2l5.55,7.35,4.65,5.25c.1.6.15,1.1.15,1.5v1.2c0,.4.05.75.15,1.05,0,.2.3.93.9,2.17.6,1.25,1.15,2.43,1.65,3.52.1,0,.3.25.6.75.3.5.6,1.05.9,1.65.3.6.7,1.4,1.2,2.4.2.2.32.5.38.9.05.4.12.8.23,1.2l.3,1.5,4.8,10.35c.6,1.6,1.2,3.05,1.8,4.35.5,1.1,1.07,2.22,1.73,3.38.65,1.15,1.22,2.02,1.72,2.62-.1,1.1-.2,1.97-.3,2.62-.1.65-.25,1.3-.45,1.95-.2.65-.4,1.02-.6,1.12-.2.2-.7.42-1.5.67-.8.25-1.45.27-1.95.08-.3-.3-.83-.65-1.58-1.05-.75-.4-1.23-.85-1.42-1.35l-1.5-4.5c-.3-.3-.53-.75-.67-1.35-.15-.6-.28-1.2-.38-1.8-.1-.7-.15-1.45-.15-2.25l-.75-1.5c-.8-1.2-1.55-2.35-2.25-3.45-.6-.9-1.15-1.77-1.65-2.62-.5-.85-.85-1.43-1.05-1.72,0-.1-.05-.28-.15-.53-.1-.25-.2-.53-.3-.83l-18.3-1.8-7.05-3-2.7,1.2c-.6-.1-1.42-.3-2.47-.6-1.05-.3-2.13-.6-3.23-.9-1.1-.3-2.1-.6-3-.9-.9-.3-1.45-.45-1.65-.45l-4.2.15-4.5-.15c-.7-.1-1.35-.2-1.95-.3-.6-.1-1.23-.2-1.88-.3-.65-.1-1.23-.2-1.72-.3-1.2-.1-1.85-.25-1.95-.45h-.6ZM69.28,99.84c.1,0,.57.08,1.42.23.85.15,1.88.33,3.08.52,1.2.2,2.52.43,3.97.67,1.45.25,2.82.48,4.12.68l-3.15-5.4.6-1.8-1.8-2.4c-.5-.6-1-1.2-1.5-1.8-.5-.6-.85-1-1.05-1.2l-2.25-3c-.7-.8-1.1-1.5-1.2-2.1-.1-.4-.15-.75-.15-1.05l.15-2.4-1.95-.6-2.55-4.35-1.65-2.55c-.3-.6-.6-1.25-.9-1.95-.2-.6-.43-1.35-.67-2.25-.25-.9-.48-1.9-.67-3-.1-.2-.25-.75-.45-1.65-.2-.9-.3-1.6-.3-2.1,0-.7-.25-1.2-.75-1.5l-.6-.45c-.4-.6-.75-1.2-1.05-1.8-.2-.4-.35-.75-.45-1.05l-1.8-3.3c-.3-.7-.6-1.4-.9-2.1-.5-1.3-.75-2.45-.75-3.45l-.3-.3-1.35,2.85c-.4.8-.83,1.73-1.27,2.78-.45,1.05-.88,2.08-1.28,3.07l-2.1,4.65c-.8,1.7-1.45,2.9-1.95,3.6-.2.3-.5.83-.9,1.58-.4.75-.8,1.38-1.2,1.88-.2.5-.48,1.12-.82,1.88-.35.75-.68,1.42-.98,2.02-.4.8-.75,1.55-1.05,2.25-.5.9-1,2.17-1.5,3.83-.5,1.65-1,2.88-1.5,3.67l-.45,2.7-1.5,3-1.65-.15c-.1.4-.1,1.2,0,2.4.1,1.2.15,2.05.15,2.55,1.7.5,3.2,1.03,4.5,1.57,1.3.55,2,.88,2.1.97l1.8.3c.3,0,.65-.05,1.05-.15.4-.1.95-.17,1.65-.22.7-.05,1.6-.17,2.7-.38,1.4,0,3.05.22,4.95.67,1.9.45,3.25.93,4.05,1.42.3.1.88.28,1.73.53.85.25,1.8.53,2.85.82,1.05.3,2.07.58,3.08.83,1,.25,1.8.43,2.4.52Z"/>
  <path class="cls-1" d="M163.48,77.64c.1-.7.25-1.4.45-2.1.3-1.2.45-2.35.45-3.45-.1-.3-.13-.62-.08-.98.05-.35.12-.67.23-.97.1-.4.15-.7.15-.9l1.2-4.5-.45-.9-.3-3.75-.3-6.75.15-2.7-.15-2.1-1.35-3.75c-.2-.5-.33-.8-.38-.9-.05-.1-.08-.25-.08-.45s-.03-.47-.08-.83c-.05-.35-.18-1.12-.38-2.32l1.95-4.5-1.65-1.35c-.3-.6-.3-1.95,0-4.05l.3-1.65c0-.1.05-.2.15-.3l-4.5.15c-.7,0-1.05-.5-1.05-1.5,0-.5.08-1.02.22-1.57.15-.55.23-1.07.23-1.58,0-.2-.03-.32-.08-.38-.05-.05-.08-.12-.08-.23.5-.4,1.4-.92,2.7-1.57,1.3-.65,2.15-.98,2.55-.98l-.6-2.25-1.8-5.25c.2-2.2,1.1-4.2,2.7-6,.8.8,1.65,1.53,2.55,2.17.9.65,1.75,1.33,2.55,2.02v4.35l4.05-1.05.75,3.3,8.4-2.1c.6-.2,1.1-.35,1.5-.45,1-.2,1.6-.35,1.8-.45.8,0,1.6.25,2.4.75.4.3.9.55,1.5.75.5,0,1.05.03,1.65.08.6.05,1.2.07,1.8.07.2,0,.45-.02.75-.07.3-.05.6-.08.9-.08l3.9,1.8,2.85,3,.15.45c.7.3,1.8.9,3.3,1.8,1.5.9,2.45,1.65,2.85,2.25.2.6.3,1.25.3,1.95v1.2c.1.5.47,1.1,1.12,1.8.65.7,1.02,1.35,1.12,1.95l.45,1.8.6,1.35c-.1.1-.15.25-.15.45v1.5c.1.1.15.3.15.6.1.2.15.45.15.75,0,.1-.05.25-.15.45-.1.2-.2.4-.3.6-.3,1.4-.3,2.55,0,3.45.2.4.4.7.6.9.2,1.1.05,2.1-.45,3-.5.9-.85,1.95-1.05,3.15l-2.1,6.45-3.75,2.25c.5.6.75,1.23.75,1.88s-.1,1.23-.3,1.73c-.1.2-.15.43-.15.68s-.05.58-.15.97l.15-.15,2.1.6c.2.3.67.75,1.42,1.35s1.52,1.25,2.33,1.95l2.4,3c.8.5,1.65,1.45,2.55,2.85l.9,1.35c.8,1.3,1.42,2.5,1.88,3.6.45,1.1.87,2.2,1.28,3.3l1.2,3.45c.1.2.25.45.45.75.2.3.35.55.45.75.3.9.42,1.72.38,2.47-.05.75-.13,1.53-.22,2.33-.1.6-.25,1.18-.45,1.73-.2.55-.2.97,0,1.27.2.2.32.5.38.9.05.4.02.75-.08,1.05l-.3.6-.3,1.35-2.25,6.45.3,1.8-1.2,1.35-1.65,3-2.85,2.85-1.35,2.1-.75,3.3-1.8.3-3.15,3.3.3.45-1.95,2.85-3.3,1.5-2.1.15-1.2.6-4.65,5.4h-2.1l-13.35.9-.9-.45c-.3-.2-.65-.35-1.05-.45-.4-.1-.8-.25-1.2-.45-.1,0-.65.17-1.65.52-1,.35-1.75.57-2.25.67-.4,0-.9-.43-1.5-1.28-.6-.85-1-1.38-1.2-1.57-.1-.4-.1-1.1,0-2.1.1-1,.2-1.85.3-2.55v-.75c0-.2.05-.55.15-1.05-.2-.4-.33-.95-.38-1.65-.05-.7-.08-1.4-.08-2.1,0-.8.05-1.65.15-2.55-.5-3.8-.67-7.6-.53-11.4.15-3.8-.03-7.55-.52-11.25-.3-1.4-.55-2.9-.75-4.5-.2-1.6-.4-3.2-.6-4.8l-.9-4.2-1.05-3.6v-2.4ZM172.33,83.34l-1.5.75c.2.3.67,1.03,1.42,2.18.75,1.15,1.17,1.93,1.28,2.32.1.5-.25,1.15-1.05,1.95-.4.4-.8.7-1.2.9l2.55,3v3.15c0,.5.05,1,.15,1.5.2.8.2,1.8,0,3-.2,1.2,0,3.05.6,5.55.5,2.3.7,4.8.6,7.5-.1,2.7-.3,4.45-.6,5.25-.1.2-.13.72-.08,1.58.05.85.17,1.82.38,2.92,0,.5.02.95.08,1.35.05.4.12.85.22,1.35.3,0,.9.08,1.8.23.9.15,1.6.32,2.1.52.4.2.9.12,1.5-.23.6-.35,1.25-.73,1.95-1.12l6.15-1.05,1.05.3c1.1-.5,2.07-1.1,2.92-1.8.85-.7,1.97-1.45,3.38-2.25l5.25-3.45-.15-2.1,2.25-1.65,1.35-3.6,1.8.75.75-1.2,1.8-2.55,2.1-3,.9.15,1.8-2.55c.2-.8.38-1.97.53-3.52.15-1.55.17-2.52.08-2.92l.45-.9-.75-.75c-.1-.2-.15-.6-.15-1.2s.02-1.3.08-2.1c.05-.8.07-1.58.07-2.33v-1.87c-.8-1.2-1.65-2.78-2.55-4.73-.9-1.95-1.6-3.47-2.1-4.58l-.9-1.8-6.75-.45-2.7-.3-2.25-.3c-.5-.2-1.08-.2-1.72,0-.65.2-1.38.5-2.17.9-.7.3-1.35.55-1.95.75-.6.2-1.2.25-1.8.15-.8.1-1.58.18-2.33.23-.75.05-1.53.03-2.33-.08-1.8-.1-3.6-.7-5.4-1.8-2-.7-3.15-1.58-3.45-2.62-.3-1.05-.35-1.92-.15-2.62.2-.7.5-1.15.9-1.35l1.35-2.1,1.5.15,13.95-.3,3.9-.9.75-7.2c.6-.5,1.1-1,1.5-1.5.4-.5.75-.98,1.05-1.42.3-.45.5-.87.6-1.28l.45-.75c.4-.4.83-1.02,1.28-1.88.45-.85.77-2.12.97-3.82l.45-7.8-.45-1.05c0-.1.02-.25.08-.45.05-.2.08-.4.08-.6s-.03-.45-.08-.75c-.05-.3-.08-.6-.08-.9-.2-.2-.35-.32-.45-.38-.1-.05-.25-.17-.45-.38-.2-.1-.4-.25-.6-.45l-1.5-1.5-.9-1.5c-.2-.4-.43-.8-.67-1.2-.25-.4-.48-.7-.67-.9l-3-2.7c-.7,0-1.2-.15-1.5-.45l-1.8-.75c-.4-.2-.78-.47-1.12-.83-.35-.35-.73-.52-1.12-.52-.1,0-.43.03-.98.08-.55.05-1.38.07-2.47.07-.5,0-.9-.02-1.2-.07-.3-.05-.55-.08-.75-.08-3.2.3-5.45.52-6.75.67-1.3.15-2.35.43-3.15.83-.9.3-1.78.63-2.62.98-.85.35-1.73.73-2.62,1.12,0,.4-.03.78-.08,1.12-.05.35-.03.73.08,1.12l.3.75.3,2.4c.1.7.12,1.35.08,1.95-.05.6-.18,1-.38,1.2-.2.2-.28.5-.23.9.05.4.17.85.38,1.35.2.5.45,1.05.75,1.65,0,1,.05,2.05.15,3.15.1.9.17,1.9.22,3,.05,1.1.17,2.15.38,3.15l.45,5.1c.1,2,.1,3.35,0,4.05.1.4.15,1.03.15,1.88s-.05,1.58-.15,2.17c0,1.3-.25,2.6-.75,3.9-.3.7-.6,1.45-.9,2.25,0,1.1.17,2.47.52,4.12.35,1.65.53,2.98.53,3.97l1.05,2.55v3.3Z"/>
  <path class="cls-1" d="M323.83,17.79c2.3,1.7,4.2,3.78,5.7,6.23,1.5,2.45,2.65,5.77,3.45,9.97.5.9.9,2.33,1.2,4.28.3,1.95.6,4.08.9,6.38l.6,3.15v.75c.5.8.87,1.6,1.12,2.4.25.8.57,1.6.97,2.4l.6,1.35.6,1.65c.4.4.9,1.43,1.5,3.08s1.05,3.18,1.35,4.57c.2.8.3,1.45.3,1.95v.75c.4,1.6.75,3.43,1.05,5.48.3,2.05.35,3.78.15,5.17,0,.5-.15,1.05-.45,1.65.5.9.67,2.45.52,4.65-.15,2.2-.48,4.7-.97,7.5-.2,1.3-.45,2.65-.75,4.05s-.65,2.8-1.05,4.2v1.8c0,.6-.05,1.25-.15,1.95,0,.1-.03.18-.08.22-.05.05-.08.13-.08.23-.6,2.8-1.23,5.23-1.88,7.27-.65,2.05-1.35,3.85-2.1,5.4-.75,1.55-1.5,2.95-2.25,4.2-.75,1.25-1.58,2.48-2.47,3.67-1.8,1.8-3.4,3.42-4.8,4.88-1.4,1.45-2.83,2.65-4.27,3.6-1.45.95-3.03,1.67-4.73,2.18-1.7.5-3.8.75-6.3.75-2,0-3.95-.15-5.85-.45-1.4-.2-2.95-.58-4.65-1.12-1.7-.55-3.05-1.12-4.05-1.73l-2.1-1.8c-.9-.8-1.88-1.75-2.93-2.85-1.05-1.1-1.98-2.2-2.77-3.3-.5-.6-1.23-1.53-2.17-2.78-.95-1.25-1.58-2.32-1.88-3.22l-.75-1.05-.6-.3c-.8-3.6-1.23-7.15-1.27-10.65-.05-3.5.07-7.6.38-12.3l.45-1.5c0-.8-.15-1.5-.45-2.1,0-.5-.03-.8-.08-.9-.05-.1-.08-.25-.08-.45-.2-1.8-.45-4.05-.75-6.75-.3-2.7-.45-5.25-.45-7.65,0-2.8.1-5.3.3-7.5.2-2.2.65-3.7,1.35-4.5-.2-.4-.3-.95-.3-1.65,0-1.4.32-3.1.97-5.1.65-2,1.32-3.75,2.03-5.25,0-.3.02-.57.07-.83.05-.25.12-.52.23-.83l.45-.9c.5-1.4,1.17-2.87,2.02-4.42.85-1.55,1.52-2.52,2.03-2.93l.75-1.35.9-1.35c.5-.7.98-1.47,1.43-2.33.45-.85,1.02-1.67,1.72-2.48.3-.5.7-1.32,1.2-2.47.5-1.15,1.02-2.35,1.58-3.6.55-1.25,1.02-2.37,1.42-3.38.4-1,.7-1.6.9-1.8.7-.6,1.32-1.25,1.88-1.95.55-.7,1.12-1.32,1.73-1.88.6-.55,1.27-1,2.02-1.35.75-.35,1.73-.52,2.93-.52,2.5,0,4.75.05,6.75.15,2,.1,3.9.3,5.7.6l1.5.3.75.45ZM289.18,90.54c-.2,2.1-.35,4.05-.45,5.85-.1,1.8-.13,3.55-.08,5.25.05,1.7.17,3.48.38,5.33.2,1.85.5,3.98.9,6.38,1.1,2,2.33,3.98,3.67,5.92,1.35,1.95,2.78,3.7,4.28,5.25,1.5,1.55,3.07,2.82,4.72,3.83,1.65,1,3.27,1.5,4.88,1.5,2.9,0,5.75-.9,8.55-2.7,2.8-1.8,5.8-4.3,9-7.5,1.6-2.5,3.05-5.15,4.35-7.95,1.3-2.8,2.3-6.1,3-9.9v-.45c0-1,.12-1.95.38-2.85.25-.9.47-1.65.67-2.25-.1-.5-.15-1.07-.15-1.72v-1.28c.2-.6.55-1.1,1.05-1.5l1.5-12.15c-.2-1.7-.48-3.85-.82-6.45-.35-2.6-.78-5.05-1.28-7.35-.8-1.3-1.48-2.72-2.03-4.27-.55-1.55-.93-2.97-1.12-4.28l-.15-3.6c-.5-2.8-.85-5-1.05-6.6-.2-1.6-.15-3.1.15-4.5-.8-.8-1.35-1.52-1.65-2.18-.3-.65-.55-1.37-.75-2.17-.1-.3-.28-.9-.53-1.8-.25-.9-.58-1.88-.97-2.93-.4-1.05-.83-2.15-1.28-3.3-.45-1.15-.88-2.18-1.28-3.08l-.9-1.2-1.05-1.5c-.5-.7-1-1.35-1.5-1.95l-1.35-.3c-.9.4-1.95.75-3.15,1.05-1.2.3-2.2.55-3,.75-1.3-.1-2.43.18-3.38.83-.95.65-1.88,1.42-2.78,2.32-1.2,1.1-2.25,2.75-3.15,4.95-.9,2.2-1.75,4.05-2.55,5.55l-.6,4.05-2.1,1.5c-.4,1.3-1,2.68-1.8,4.12-.8,1.45-1.7,2.73-2.7,3.82-.8,2.2-1.6,4.55-2.4,7.05-.8,2.5-1.45,4.6-1.95,6.3,0,.8-.03,1.9-.08,3.3-.05,1.4-.1,2.88-.15,4.43-.05,1.55-.1,3.07-.15,4.57-.05,1.5-.08,2.85-.08,4.05v3.15c0,.9.05,1.55.15,1.95l.75,4.65Z"/>
  <path class="cls-1" d="M439.78,130.59c-.2,0-.5-.1-.9-.3-.3-.1-.55-.15-.75-.15l-2.4-.15-5.55-1.95-2.85-1.65c-.1-.2-.25-.35-.45-.45l-.9-.45c-.3-.1-.65-.33-1.05-.67-.4-.35-.8-.73-1.2-1.12-.4-.4-.78-.8-1.12-1.2-.35-.4-.58-.65-.67-.75-.2-.2-.48-.4-.83-.6-.35-.2-.73-.4-1.12-.6l-2.1.45-2.1-6-1.35-.15-1.5-4.05-3.15-3.45-1.5-1.95-.3-2.7c-.1-.8-.13-1.55-.08-2.25.05-.7.02-1.45-.07-2.25-.2-.1-.43-.42-.68-.98-.25-.55-.48-1.22-.67-2.02-.2-.8-.22-1.62-.08-2.48.15-.85.38-1.27.68-1.27.1,0,.2-.02.3-.08.1-.05.2-.07.3-.07h.15l-1.65-10.8.3-6.9-.15-.45-.6-1.5.75-1.65c.1-.2.2-.42.3-.67.1-.25.15-.47.15-.67l-1.95-3v-6.75l-.15-2.85-.15-2.4c0-.5.02-1.12.08-1.88.05-.75.1-1.47.15-2.18.05-.7.1-1.35.15-1.95.05-.6.12-1.05.22-1.35l.6-1.95v-3.45l1.65-1.8-.3-1.35c-.1-.2-.18-.38-.22-.52-.05-.15-.08-.32-.08-.52v-1.65l2.1-3.75c0-.1.1-.45.3-1.05.1-.2.2-.45.3-.75.1,0,.22-.05.38-.15.15-.1.32-.2.52-.3.2-.1.35-.25.45-.45.1-.1.2-.3.3-.6.1-.3.2-.55.3-.75.1-.5.25-.95.45-1.35.4-.8.6-1.25.6-1.35.1-.2.3-.6.6-1.2s.7-1.25,1.2-1.95c.4-.8.95-1.65,1.65-2.55h1.95c1.1-.3,2.07-.4,2.93-.3.85.1,1.42.25,1.72.45.5.4.65.9.45,1.5-.2.6-.4,1.3-.6,2.1-.3.5-.45,1-.45,1.5l-1.05,1.95c-.2.3-.4,1.1-.6,2.4-.2,1.3-.85,2.5-1.95,3.6-.2.1-.7.55-1.5,1.35-.4.4-.75.8-1.05,1.2.1.5.15,1.23.15,2.18s-.1,1.53-.3,1.72l.15-.15c-.1.2-.22.43-.38.68-.15.25-.28.48-.38.67l-1.2,1.95c-.2.5-.3.88-.3,1.12v.67c0,.2-.03.35-.08.45-.05.1-.08.2-.08.3-.1.1-.15.2-.15.3v3l-.3,3.6-.45.15-.3,1.05-1.05,2.4,1.05,2.4-.3,3c-.2.1-.33.2-.38.3-.05.1-.18.25-.38.45l.9,1.05-.3,1.95c.1.2.2.45.3.75.1.3.25.6.45.9.2.4.35.75.45,1.05l-.15,4.2v1.35l-.15.15.6,2.85c.2.4.25.95.15,1.65-.1.7-.2,1.4-.3,2.1-.2,1.3-.33,2.8-.38,4.5-.05,1.7.17,3.65.67,5.85,0,.2.05.4.15.6.1.2.2.4.3.6.1.2.2.35.3.45-.1.5-.15,1.05-.15,1.65v1.8c0,.7.1,1.45.3,2.25.1.4.3.75.6,1.05.3.3.65.65,1.05,1.05.2.3.42.58.67.83.25.25.47.63.67,1.12.2.9.2,1.9,0,3,0,.8.02,1.58.08,2.33.05.75.17,1.57.38,2.47,0,.3.15.6.45.9s.6.55.9.75c.4.3.8.55,1.2.75l.6,1.5,3.3.75c0,.3.05.5.15.6,0,.1.05.2.15.3l1.5.6,2.7,3.9c.1.2.2.45.3.75.2.6.35.95.45,1.05l.15.3,2.1.15,1.95,1.05.45-.15,2.7-.15,2.55.6,1.35-.15.6,1.8c.8-.2,1.35-.35,1.65-.45.3-.1.55-.2.75-.3.5.2,1.2.15,2.1-.15.9-.3,1.55-.55,1.95-.75l1.95-.9c.3-.1.67-.2,1.12-.3.45-.1,1.42-.2,2.92-.3h.9c.4,0,.8-.05,1.2-.15l1.5-.3c.2-.3.45-.67.75-1.12s.65-.83,1.05-1.12l5.85-4.35,1.05-6.3,3.3-3.3c-.3-.5-.35-1.3-.15-2.4,0-.5-.03-1.1-.08-1.8-.05-.7-.08-1-.08-.9-.1-.3-.13-.7-.08-1.2.05-.5.32-.75.83-.75l3.15-3.75-.6-7.8.9-6.3c0-.7.05-1.1.15-1.2.5-1,1.2-2.05,2.1-3.15v-1.65c0-1-.1-1.7-.3-2.1-.4-1.4-.6-2.35-.6-2.85s.05-.85.15-1.05l.3-2.4c.2-.3.32-.92.38-1.88.05-.95-.08-1.62-.38-2.02v-1.05c0-.3-.03-.65-.08-1.05-.05-.4-.08-.85-.08-1.35v-.15l-.15-.3v-.6l-2.25-4.05-.9-4.05c-.4-.8-.83-2.07-1.27-3.82-.45-1.75-.58-3.32-.38-4.73l-.15-.6c-.1-.3-.45-1.17-1.05-2.62-.6-1.45-1.15-2.97-1.65-4.58-.3-1.1-.5-2.12-.6-3.07-.1-.95.05-1.73.45-2.33l2.25-2.4.9-.3c.3-.1.85-.15,1.65-.15.2,0,.57.45,1.12,1.35.55.9,1.15,1.9,1.8,3,.65,1.1,1.22,2.2,1.72,3.3.5,1.1.75,1.85.75,2.25.2.6.45,1.4.75,2.4.3,1,.4,1.75.3,2.25-.2.3-.28.67-.23,1.12.05.45.08.93.08,1.42l2.4,6.3c1,2.8,1.5,5.45,1.5,7.95.2.2.32.48.38.83.05.35.07.58.07.67l.75,1.8c.1.6.25,1.15.45,1.65.2.5.32,1,.38,1.5.05.5.08.85.08,1.05l-1.05,1.8c.3.7.55,1.3.75,1.8.2.5.32,1,.38,1.5.05.5.02.85-.08,1.05l-.6,2.7c-.1.1-.2.3-.3.6-.1.3-.1.5,0,.6,0,.2.05.45.15.75.2.6.35.95.45,1.05l-.3.6c-.1.2-.18.4-.23.6-.05.2-.13.4-.22.6l-.6,4.2-.9,1.2c-.1.4-.45.8-1.05,1.2l-.75.45-.3,3.3,1.8.15-.9,2.55c.4.8.62,2.03.67,3.67.05,1.65-.28,2.88-.97,3.67l-.9,2.25-1.8,5.25.9,3.9-4.8,1.5.6,2.55-1.5,3.3-.6,3.75-4.8,1.95.75,1.05-1.2.15-.6,1.35c-.2.2-.3.35-.3.45s-.1.25-.3.45l-.9,1.2-4.05,1.65c-.3.3-.65.55-1.05.75l-.6.3c-.2-.2-.5-.3-.9-.3h-.75c-.2,0-.43.1-.68.3-.25.2-.48.35-.67.45l-2.4,1.2c-.5.4-1.35.5-2.55.3-.6,0-1.25-.1-1.95-.3l-1.35,1.5c-.2.2-.55.27-1.05.23-.5-.05-1-.08-1.5-.08-.6,0-1.2-.05-1.8-.15l-2.1-.3-1.5-.45Z"/>
  <path class="cls-1" d="M540.28,28.44c1,.1,2.4.05,4.2-.15,1.8-.2,3.67-.42,5.62-.68,1.95-.25,3.8-.52,5.55-.82,1.75-.3,3.08-.55,3.97-.75l1.65-.3,4.05-.45c.1,0,.17-.02.22-.08.05-.05.12-.07.23-.07l5.7-1.35h1.2c.3,0,.55-.05.75-.15l-.45-1.5c-.3-.9-.55-1.8-.75-2.7-.2-.3-.35-.55-.45-.75-.1-.2-.2-.4-.3-.6-.1-.2-.2-.35-.3-.45l1.95-4.35,6.15,1.95v5.25l.6,2.4h5.1l13.65.3-.3,2.1c-.1.5-.33,1.3-.67,2.4-.35,1.1-.78,1.8-1.28,2.1l-9.9,1.5c-.7.1-1.5.13-2.4.07-.9-.05-1.8-.07-2.7-.07v24.15c-.2.8-.2,1.45,0,1.95,0,.4.05.7.15.9l-2.1,2.4h1.05c.1.9.15,1.95.15,3.15s-.15,2.2-.45,3c-.3.6-.52,1.18-.67,1.73-.15.55-.28,1.08-.38,1.58-.1.5-.15,1-.15,1.5-.2.3-.45.73-.75,1.27-.3.55-.55.98-.75,1.27l.9,2.85c0,.5.05.95.15,1.35,0,.4.02.73.08.97.05.25.07.48.07.68l-1.35,7.05-.3,12.3-.45,2.25c.1.4.12.85.08,1.35-.05.5-.13.95-.23,1.35-.1.5-.18.9-.22,1.2-.05.3.02.7.22,1.2.3.8.47,1.63.53,2.48.05.85.08,1.58.08,2.17-.1.5-.1.9,0,1.2-.1.5-.13,1.03-.08,1.58.05.55.12,1.08.22,1.57.1.5.2,1.05.3,1.65l-1.05,1.2c.2.4.35.8.45,1.2.2,1-.05,1.9-.75,2.7-.4,1.1-.6,2.2-.6,3.3v1.5l-2.4-.9c-.7-.2-1.35-.45-1.95-.75-.6-.3-1-.55-1.2-.75l.3-10.35c.1-.5.2-1.05.3-1.65.1-.5.12-1.05.08-1.65-.05-.6-.13-1.15-.23-1.65-.2-1.2-.38-2.37-.52-3.52-.15-1.15-.18-2.07-.08-2.78l.6-13.2c.2-.6.35-1.2.45-1.8.1-.6.2-1.15.3-1.65l.45-1.95c0-.7-.15-1.45-.45-2.25-.2-.4-.35-.9-.45-1.5-.4-1-.7-1.95-.9-2.85-.2-.8-.33-1.6-.38-2.4-.05-.8.12-1.45.53-1.95.3-1.2.55-2.45.75-3.75.1-.7.2-1.45.3-2.25.4-1.7.8-3.38,1.2-5.02.4-1.65.9-3.17,1.5-4.57.2-.3.3-.65.3-1.05v-2.4l-.3-2.55c-.6-1.9-.6-3.1,0-3.6v.15c.2-.6.3-1.07.3-1.42s-.05-.77-.15-1.28c0-.2-.03-.4-.08-.6-.05-.2-.07-.45-.07-.75v-6.45l2.25-.9-2.25-4.65v-.75c-.2,0-.33-.02-.38-.08-.05-.05-.13-.08-.23-.08l-4.95,1.05-2.25.15h-2.85c-.4,0-.95.08-1.65.23-.7.15-1.42.3-2.17.45-.75.15-1.45.28-2.1.38-.65.1-1.08.15-1.28.15-1-.2-2.28-.27-3.83-.23-1.55.05-3.03.07-4.42.07l-1.5.15-7.35,1.2,1.5-6.9Z"/>
  <path class="cls-1" d="M805.63,36.24l-.15.3-.45,3,.45,5.25c-.1.7-.2,1.4-.3,2.1-.1.6-.15,1.25-.15,1.95s.1,1.4.3,2.1c-.1.8-.18,1.6-.22,2.4-.05.8-.13,1.55-.23,2.25-.1.8-.15,1.55-.15,2.25-.3.5-.6.95-.9,1.35-.5.8-.75,1.5-.75,2.1l-.15,2.1c.1.5.17,1.03.23,1.57.05.55.02,1.18-.08,1.88l-1.95,13.05c0,.7-.18,1.6-.52,2.7-.35,1.1-.78,2.2-1.28,3.3-.5,1.2-.75,2.25-.75,3.15-.1.5-.1,1.05,0,1.65l-2.7,7.05c-1.7,3.2-2.98,5.13-3.83,5.78-.85.65-1.57.93-2.17.83-.5-.1-1.05-.45-1.65-1.05-.6-.6-1-1.15-1.2-1.65l-1.05-4.5c-.3-.4-.88-1.75-1.73-4.05-.85-2.3-1.78-4.75-2.77-7.35-1.1-3.1-2.35-6.55-3.75-10.35l-.45-1.65c-1-2.7-1.95-5.15-2.85-7.35-.8-1.9-1.53-3.7-2.17-5.4-.65-1.7-1.08-2.7-1.27-3-.4-1.1-.7-2.25-.9-3.45-.2-1.2-.25-1.7-.15-1.5l-5.7-11.4-6-11.7c-.3,1.5-.55,2.9-.75,4.2-.2,1.3-.4,2.5-.6,3.6-.2,1.2-.35,2.3-.45,3.3l-1.2,5.25v3.3c-.2.7-.35,1.58-.45,2.62-.1,1.05-.05,1.93.15,2.62.2.5.42,1.2.68,2.1.25.9.38,1.45.38,1.65.7,2.1,1.15,3.85,1.35,5.25.1.8.15,1.5.15,2.1l-.3,3-.15,5.1-1.5,1.5,1.35,1.95c.1.3.2.65.3,1.05.2.6.2,1.4,0,2.4l-.6,3.75c-.2.3-.35.83-.45,1.58-.1.75-.25,1.53-.45,2.32-.2.9-.35,1.85-.45,2.85l1.35,1.35-.45,12.75c.1.7.2,1.35.3,1.95.1.5.15,1,.15,1.5s.05.8.15.9c0,.4-.03,1.08-.08,2.03-.05.95-.13,1.98-.23,3.07-.1,1.2-.2,2.55-.3,4.05v1.8c.2.7.4,1.35.6,1.95.2.5.38,1.05.52,1.65.15.6.27,1.15.38,1.65l.75,4.65c.2.5.08,1.12-.38,1.88s-.83,1.32-1.12,1.73c-.4.5-1.03.8-1.88.9-.85.1-1.38.1-1.58,0-.3,0-.65-.18-1.05-.52-.4-.35-.8-.75-1.2-1.2-.4-.45-.75-.93-1.05-1.42-.3-.5-.45-.9-.45-1.2.2-.8.27-1.83.23-3.07-.05-1.25-.13-2.53-.23-3.83-.1-1.5-.2-3.05-.3-4.65l-.6-11.4c-.1-.5-.25-.95-.45-1.35-.4-1-.55-1.75-.45-2.25-.1-.7-.18-1.67-.22-2.92-.05-1.25.02-2.12.22-2.62-.1-1.3-.15-2.62-.15-3.97s-.1-2.12-.3-2.33c-.1-.2-.18-.5-.22-.9-.05-.4-.13-.8-.22-1.2-.1-.4-.15-.85-.15-1.35l.75-6.75,1.5-9.15c.1-.4.2-.92.3-1.58.1-.65.2-1.3.3-1.95.1-.65.17-1.22.23-1.72.05-.5.08-.8.08-.9,0-.3-.05-.82-.15-1.57-.1-.75-.22-1.52-.38-2.33-.15-.8-.3-1.52-.45-2.17-.15-.65-.22-1.07-.22-1.27l-1.65-4.5-.75-5.85.45-2.4,2.25-6.45c-.4-1-.6-1.9-.6-2.7-.1-.4-.1-.85,0-1.35l2.25-9.45c.1-.7.2-1.35.3-1.95.1-.5.2-1.07.3-1.72.1-.65.15-1.22.15-1.73l1.95-3.3,8.1,1.8,4.2,5.55v1.5c0,.4-.03.8-.08,1.2-.05.4-.03.75.08,1.05,0,.1.3.8.9,2.1.6,1.3,1.28,2.73,2.03,4.27.75,1.55,1.5,3.08,2.25,4.58s1.22,2.55,1.42,3.15c.1,0,.45.63,1.05,1.88.6,1.25,1.28,2.65,2.03,4.2.75,1.55,1.42,3.05,2.02,4.5.6,1.45,1,2.38,1.2,2.77.2.3.3.65.3,1.05s.05.8.15,1.2c0,.4.05.9.15,1.5l4.2,10.8c.9,2.2,1.85,4.4,2.85,6.6.8,1.9,1.7,3.93,2.7,6.08,1,2.15,1.95,4.18,2.85,6.07l.45-2.4c.2-.2.3-.6.3-1.2.1-.7.25-1.45.45-2.25.2-.8.5-1.55.9-2.25.4-.5.57-.9.53-1.2-.05-.3-.03-.7.08-1.2.1-.4.15-.85.15-1.35s.1-.95.3-1.35l-.15-2.25,2.1-12,.15-7.35c0-.5.15-1.05.45-1.65.1-.4.25-.8.45-1.2l1.95-2.4c-.2-.4-.48-.9-.82-1.5-.35-.6-.58-1.1-.68-1.5v-3.08c0-.55-.1-1.12-.3-1.73-.1-.7-.08-1.5.08-2.4s.32-1.75.53-2.55c.3-1,.6-1.95.9-2.85.5-.8,1.05-1.58,1.65-2.33.6-.75,1.15-1.67,1.65-2.77l1.95-.3c1.6.8,2.95,1.55,4.05,2.25,1.1.7,2.25,1.7,3.45,3,.5.2,1.12.93,1.88,2.17.75,1.25,1.22,2.43,1.42,3.52l.15,5.25-.15,3,1.8,1.05,1.95,3.6c.1.8.25,1.55.45,2.25.2.6.45,1.23.75,1.88.3.65.7,1.18,1.2,1.57.5.4.9.98,1.2,1.73s.55,1.53.75,2.33c.3,1,.55,2,.75,3-.1.6-.15,1.15-.15,1.65v1.35c0,.4.1.75.3,1.05.2.6.35,1.48.45,2.62.1,1.15.25,2.38.45,3.67.2,1.4.5,2.93.9,4.58.4,1.65,1,3.23,1.8,4.73.4.6.87,1.75,1.42,3.45.55,1.7.83,3.15.83,4.35,0,.6.08,1.18.22,1.73.15.55.32,1.08.53,1.57.2.5.45,1,.75,1.5l4.5,10.2c.2,1.1.1,2.08-.3,2.92-.4.85-.85,1.48-1.35,1.88-.5.5-1.05.65-1.65.45-.6-.2-1.1-.75-1.5-1.65-.1-.5-.25-1-.45-1.5-.3-.8-.75-1.75-1.35-2.85-.5-.5-.85-1.25-1.05-2.25l-.3-1.5-1.35-.75c-.2-.6-.45-1.2-.75-1.8-.2-.5-.43-1.02-.68-1.58-.25-.55-.48-1.07-.67-1.58l-.45-1.35c-.2-.5-.38-1.2-.52-2.1-.15-.9-.18-1.75-.08-2.55.1-.5.08-.9-.08-1.2-.15-.3-.33-.65-.52-1.05-.2-.4-.38-.82-.53-1.27-.15-.45-.28-.87-.38-1.27l-.9-2.1-2.55-8.55-2.55-9.45c-.1-.2-.15-.42-.15-.67s-.05-.57-.15-.98c-.1-.4-.15-.85-.15-1.35l.3-2.7-2.1-2.4c-.1-.5-.25-1.05-.45-1.65-.2-.5-.38-1.05-.52-1.65-.15-.6-.33-1.2-.53-1.8-.4-1.2-.8-2.6-1.2-4.2-.2-.8-.4-1.6-.6-2.4l-2.1-5.7-1.05-3.15-2.25-2.1Z"/>
  <path class="cls-1" d="M901.33,129.39c-.5-.4-.9-1.25-1.2-2.55-.3-1.6-.45-4-.45-7.2h1.2l1.5-.45c-.1-.6-.15-1.6-.15-3v-4.65c0-1.7.05-3.38.15-5.03.1-1.65.15-3.02.15-4.12,0-.3.17-1.17.53-2.62.35-1.45.7-3.02,1.05-4.72.35-1.7.7-3.27,1.05-4.72.35-1.45.53-2.33.53-2.63.2-1,.3-2.07.3-3.23s.05-2.17.15-3.07c0-1.1.05-2.15.15-3.15l-.45.15-2.85-1.8c-1.4-.5-2.65-1.17-3.75-2.02-1.1-.85-1.95-2.27-2.55-4.27.1-1,.2-1.95.3-2.85.1-.8.2-1.52.3-2.17.1-.65.25-1.07.45-1.28l1.2-1.2.83-.83c.35-.35.77-.52,1.27-.52.5.5,1.75,1.25,3.75,2.25-.2-1.4-.33-2.95-.38-4.65-.05-1.7-.13-3.45-.22-5.25-.2-3.3-.33-6.42-.38-9.38-.05-2.95-.08-4.92-.08-5.93v-7.2c-1.2-.5-2.3-1.15-3.3-1.95-1-.8-1.75-2.15-2.25-4.05.1-1,.2-1.95.3-2.85.1-.8.2-1.52.3-2.17.1-.65.25-1.07.45-1.28l1.2-1.2.83-.83c.35-.35.77-.52,1.27-.52.3.3.88.7,1.73,1.2.85.5,1.85,1,3,1.5,1.15.5,2.27.93,3.38,1.27,1.1.35,2,.52,2.7.52l1.5.3,1.2.15,11.1-1.65c.7.1,1.45.3,2.25.6.8.3,1.55.5,2.25.6l8.1-1.35.75.75c.3.3.75.85,1.35,1.65l5.4-.45,2.85-1.8,3,2.1,5.1-1.95,4.95.9c.2.8.45,1.5.75,2.1.3.6.5,1.2.6,1.8.2.9.1,1.7-.3,2.4-.2.2-.48.4-.83.6-.35.2-.97.4-1.88.6h-7.88c-1.35,0-2.33.05-2.92.15-.6-.2-1.83-.17-3.67.08-1.85.25-3.43.52-4.73.82-1,.2-2.15.43-3.45.68-1.3.25-2.05.22-2.25-.08-.2-.1-.55-.17-1.05-.23-.5-.05-1.03-.1-1.57-.15-.55-.05-1.08-.1-1.58-.15-.5-.05-.8-.08-.9-.08l-2.55.3c-1.2.5-2.25.9-3.15,1.2-.9.3-1.65.55-2.25.75-.7.3-1.3.5-1.8.6l-6-.45-1.35-.15-4.05,1.05c0,.1-.03.18-.08.22-.05.05-.08.13-.08.23-.3.6-.45,1.1-.45,1.5,0,.2.1,1.3.3,3.3.2,2,.4,4.3.6,6.9.1,2.1.2,4.25.3,6.45.1,2.2.15,4.2.15,6v6.15l1.05,3.45c.3,0,.7.03,1.2.08.5.05.95.07,1.35.07l4.65.9c.2,0,.7-.02,1.5-.08.8-.05,1.8-.08,3-.08,1.3,0,3.05.05,5.25.15,2.2.1,4.6.25,7.2.45h3.75l8.7-.3c-.4,1.7-.8,3.25-1.2,4.65-.3,1.2-.58,2.3-.82,3.3-.25,1-.38,1.55-.38,1.65,0,.5-.23.95-.68,1.35-.45.4-1.33.6-2.62.6l-2.25-.75-2.85-.45-9.3-.45h-8.4c.1,0-.05-.05-.45-.15-.4-.1-.9-.25-1.5-.45l-2.4-.6h-2.85c.2,1.7.47,3.8.83,6.3.35,2.5.42,4.95.23,7.35-.9,4.2-1.63,8.53-2.18,12.97-.55,4.45-.88,9.03-.97,13.73l6.75-1.8c.7,0,1.72-.12,3.08-.38,1.35-.25,2.37-.38,3.08-.38l7.95-1.95c.2.1.45.2.75.3.6.4,1.1.8,1.5,1.2l5.4-.9,2.7-1.2,3.15,1.8,4.95-2.25,4.95.45c.3.8.7,1.48,1.2,2.03.5.55.9,1.12,1.2,1.72.3.8.25,1.6-.15,2.4l-.75.75c-.3.3-.9.55-1.8.75l-5.1.3-6.45.6c-.6-.1-1.83.02-3.68.38-1.85.35-3.38.77-4.57,1.28-1,.3-2,.52-3,.67-1,.15-1.9.28-2.7.38-.6-.1-1.55-.15-2.85-.15s-2.05-.05-2.25-.15l-2.55.6c-1.1.5-2.38.95-3.83,1.35-1.45.4-2.77.75-3.97,1.05-1.5.4-2.95.75-4.35,1.05-.7.2-1.38.47-2.03.83-.65.35-1.38.62-2.17.82-.8.3-1.55.55-2.25.75-.7.2-1.3.2-1.8,0Z"/>
</svg>