<?xml version="1.0" encoding="UTF-8"?>
<svg id="Layer_1" data-name="Layer 1" xmlns="http://www.w3.org/2000/svg" viewBox="0 0 856.7 134.56">
  <defs>
    <style>
      .cls-1 {
        fill: #ff0;
        stroke: #ff0;
        stroke-miterlimit: 10;
        stroke-width: 10px;
      }
    </style>
  </defs>
  <path class="cls-1" d="M15.31,63.26l1.5,8.4c.2.5.1,1.05-.3,1.65-.2.4-.4.7-.6.9-.1.2-.2.45-.3.75-.2.5-.35,1.1-.45,1.8-.2.8-.38,1.4-.53,1.8-.15.4-.22.7-.22.9-.1.3-.1.45,0,.45l.9.75c.1.2.17.48.23.83.05.35.12.78.22,1.28.1.5.15,1.1.15,1.8v2.7c0,.4.1.7.3.9,0,.2.1.5.3.9.1.2.2.35.3.45l1.65,3.15.6,3c.6.2.95.35,1.05.45.5.2.75.7.75,1.5v1.35c-.1,1-.1,1.9,0,2.7.1.7.22,1.4.38,2.1.15.7.42,1.2.82,1.5.1.1.23.13.38.08.15-.05.27-.08.38-.08.2.2.47.4.83.6.35.2.62.4.83.6.3.3.6.55.9.75l.45,2.55,4.2,2.7-.3,1.8c.2.1.5.35.9.75l2.85.75-.3,2.1,1.65.3v.45c.2.1.45.27.75.53.3.25.6.47.9.67.1.1.25.15.45.15s.38.02.52.07c.15.05.38.08.68.08l1.65.9,1.95-.15,9.45-3.45,4.95-3.3,1.05-.6,1.8-.9,3.3.45c0-.2.02-.58.08-1.12.05-.55.02-.92-.08-1.12,0-.4.3-.9.9-1.5.3-.3.6-.5.9-.6.2-.2.4-.45.6-.75.4-.6.75-1.05,1.05-1.35.5-.7.87-1.2,1.12-1.5.25-.3.42-.55.53-.75l.15-.3-.15-.15c-.2-.2-.35-.55-.45-1.05-.1-.2-.05-.45.15-.75.2-.3.4-.65.6-1.05.3-.4.6-.85.9-1.35.1-.2.2-.5.3-.9.1-.2.17-.45.22-.75.05-.3.12-.55.22-.75v-1.65l.75-.6c0-.2.05-.5.15-.9.1-.3.15-.65.15-1.05s.05-.85.15-1.35c0-.4.3-.9.9-1.5l.9-.9c0-.1-.03-.25-.07-.45-.05-.2-.03-.65.07-1.35l.45-1.2,2.25-2.25,2.25,2.1v.6c0,.2-.1.5-.3.9-.1.8-.15,1.8-.15,3v2.1c-.7.9-.85,2-.45,3.3v.6c0,.2-.03.38-.08.52-.05.15-.08.33-.08.53-.1.3-.18.63-.22.97-.05.35-.18.67-.38.98l-.45,1.35c-.5.3-.8.6-.9.9-.1.2-.15.35-.15.45v.6c0,.7.15,1.25.45,1.65v.6c0,.3.05.7.15,1.2.2,1,.35,2.15.45,3.45.1,1.3-.2,2.2-.9,2.7-.2.2-.38.35-.52.45-.15.1-.33.2-.53.3l-.6.3-2.1,5.85-3.15-.45c-.4.7-.7,1.28-.9,1.72-.2.45-.38.88-.53,1.28-.15.4-.28.65-.38.75-.5.5-1.1.85-1.8,1.05-.4.1-.7.15-.9.15l-2.85-.15c0,.1-.1.2-.3.3-.2.1-.35.15-.45.15l-.9.6c-.5.3-1,.55-1.5.75-.1-.1-.2-.15-.3-.15-.2,0-.35-.05-.45-.15-.5.2-1.35.55-2.55,1.05-1.2.5-2.35.95-3.45,1.35-.2.1-.7.25-1.5.45-.4.1-.75.2-1.05.3l-2.7-.75h-.3c-.5,0-1-.05-1.5-.15-.6-.1-1.3-.05-2.1.15l-1.2.3c-1-.2-1.83-.53-2.47-.97-.65-.45-1.38-1.23-2.17-2.33-.1,0-.3-.05-.6-.15-.2-.1-1.2-.3-3-.6l-1.35-.45-2.25-2.7c-.9-.7-1.95-1.4-3.15-2.1l-.9-1.5c-.2-.4-.4-.8-.6-1.2-.2-.4-.4-.7-.6-.9-.4-.6-.6-1.35-.6-2.25-.1-.5-.1-1.05,0-1.65-.1,0-.43-.23-.97-.67-.55-.45-1.72-1.47-3.53-3.08-.8-1.2-1.45-2.3-1.95-3.3l-.75-.15c-.1-.1-.15-.25-.15-.45-.1-.2-.15-.55-.15-1.05-.2-.7-.5-1.62-.9-2.78-.4-1.15-.6-1.82-.6-2.02.3-1-.05-2.1-1.05-3.3-.3-.9-.6-1.75-.9-2.55-.5-1.5-1-2.5-1.5-3-.4-.4-.5-1.05-.3-1.95l-.3-1.35c.4-.4.6-.75.6-1.05v-.45c0-.1-.05-.3-.15-.6-.1-.2-.22-.42-.38-.67-.15-.25-.38-.47-.67-.68.1-.1.08-.3-.08-.6s-.33-.65-.53-1.05c-.6-.9-1.18-1.95-1.72-3.15-.55-1.2-.58-2.2-.08-3,.1-.2.35-.5.75-.9.2-.2.35-.4.45-.6v-4.2c-.1,0-.2-.05-.3-.15-.1,0-.15-.05-.15-.15-.4-1-.6-1.92-.6-2.77s.25-1.88.75-3.08c0-.1-.05-.3-.15-.6-.1-.2-.25-.52-.45-.97-.2-.45-.4-1.07-.6-1.88l-.45-1.35,1.05-3.3v-3.75c.2-.6.45-1.1.75-1.5.6-.9.95-1.65,1.05-2.25.2-.5.7-1.1,1.5-1.8.4-.4.85-.7,1.35-.9,0-.1.02-.47.08-1.12.05-.65.27-2.22.67-4.73.6-1.3,1.12-2.37,1.58-3.22.45-.85.87-1.55,1.27-2.1.4-.55.83-1.02,1.28-1.42.45-.4.97-.85,1.58-1.35l1.8-1.35.3-1.95,2.1-2.85,1.2-1.8,2.25-2.7,6.45-5.7h1.95l.6-2.55,1.95-1.65h2.85l5.4,1.05.15-.75,3.6.6,4.8-2.55,2.7,1.5,5.4,1.35,1.5,1.8c1-.2,2.17.2,3.52,1.2,1.35,1,2.27,1.85,2.78,2.55l4.05,1.95c4,4.1,6.3,7.45,6.9,10.05.2.3.42.65.67,1.05.25.4.53.75.83,1.05s.65.93,1.05,1.88c.4.95.65,1.78.75,2.47.2.3.4.88.6,1.73.2.85.35,1.72.45,2.62.1.9.15,1.72.15,2.47s-.05,1.18-.15,1.28c-.5.5-.95.8-1.35.9-.3.1-.55.2-.75.3l-3.45-.9c-.8-.3-1.45-.9-1.95-1.8-.5-.9-.95-1.85-1.35-2.85-.4-1-.73-1.95-.98-2.85-.25-.9-.43-1.55-.52-1.95-.8-.7-1.45-1.5-1.95-2.4-.5-.9-.8-1.8-.9-2.7l-3.15-1.65-6.3-6c-.8.8-1.7,1.35-2.7,1.65-1,.3-1.65.35-1.95.15.2.1.02-.07-.53-.52-.55-.45-1.08-.77-1.57-.98-.3-.2-.65-.42-1.05-.67-.4-.25-.7-.52-.9-.83l-4.5.6-3.15-.45-3,2.25-.3-.6-3.3,1.35-.75-.15-8.25,1.5,1.05,2.85-4.95,1.8-.75,2.4c.1.2.27.62.53,1.27.25.65.38,1.03.38,1.12.1.5-.2,1-.9,1.5-.4.3-.8.55-1.2.75-.9.5-1.65,1-2.25,1.5-.5.5-1,1-1.5,1.5-.5.5-.75,1-.75,1.5,0,.4.1.6.3.6v1.05c0,.4-.05.8-.15,1.2-.1.4-.15.8-.15,1.2l-1.8,1.5v5.1l-1.5.6c0,.2-.05.4-.15.6-.1.2-.1.4,0,.6l.9,2.85-1.95.75.75,1.65-.45.15c0,.3-.03.65-.08,1.05-.05.4-.08.75-.08,1.05,0,.1.05.25.15.45.1.2.17.4.22.6.05.2.17.4.38.6v.9l-.15.15Z"/>
  <path class="cls-1" d="M186.16,10.61c2.3,1.7,4.2,3.78,5.7,6.23,1.5,2.45,2.65,5.77,3.45,9.97.5.9.9,2.33,1.2,4.28.3,1.95.6,4.08.9,6.38l.6,3.15v.75c.5.8.88,1.6,1.12,2.4.25.8.57,1.6.98,2.4l.6,1.35.6,1.65c.4.4.9,1.43,1.5,3.08.6,1.65,1.05,3.18,1.35,4.58.2.8.3,1.45.3,1.95v.75c.4,1.6.75,3.43,1.05,5.47.3,2.05.35,3.78.15,5.17,0,.5-.15,1.05-.45,1.65.5.9.67,2.45.53,4.65-.15,2.2-.48,4.7-.98,7.5-.2,1.3-.45,2.65-.75,4.05-.3,1.4-.65,2.8-1.05,4.2v1.8c0,.6-.05,1.25-.15,1.95,0,.1-.03.18-.08.22-.05.05-.08.13-.08.22-.6,2.8-1.23,5.23-1.88,7.28-.65,2.05-1.35,3.85-2.1,5.4-.75,1.55-1.5,2.95-2.25,4.2-.75,1.25-1.58,2.48-2.48,3.68-1.8,1.8-3.4,3.42-4.8,4.88-1.4,1.45-2.83,2.65-4.28,3.6-1.45.95-3.03,1.67-4.72,2.17-1.7.5-3.8.75-6.3.75-2,0-3.95-.15-5.85-.45-1.4-.2-2.95-.58-4.65-1.12-1.7-.55-3.05-1.12-4.05-1.72l-2.1-1.8c-.9-.8-1.88-1.75-2.92-2.85-1.05-1.1-1.98-2.2-2.78-3.3-.5-.6-1.23-1.53-2.17-2.77-.95-1.25-1.58-2.33-1.88-3.23l-.75-1.05-.6-.3c-.8-3.6-1.23-7.15-1.28-10.65-.05-3.5.08-7.6.38-12.3l.45-1.5c0-.8-.15-1.5-.45-2.1,0-.5-.03-.8-.08-.9-.05-.1-.07-.25-.07-.45-.2-1.8-.45-4.05-.75-6.75-.3-2.7-.45-5.25-.45-7.65,0-2.8.1-5.3.3-7.5.2-2.2.65-3.7,1.35-4.5-.2-.4-.3-.95-.3-1.65,0-1.4.32-3.1.98-5.1.65-2,1.32-3.75,2.02-5.25,0-.3.02-.57.08-.83.05-.25.12-.53.22-.83l.45-.9c.5-1.4,1.17-2.87,2.03-4.42.85-1.55,1.52-2.52,2.02-2.92l.75-1.35.9-1.35c.5-.7.97-1.47,1.42-2.33.45-.85,1.02-1.67,1.73-2.47.3-.5.7-1.32,1.2-2.47.5-1.15,1.02-2.35,1.58-3.6.55-1.25,1.02-2.37,1.42-3.38.4-1,.7-1.6.9-1.8.7-.6,1.32-1.25,1.88-1.95.55-.7,1.12-1.32,1.72-1.88.6-.55,1.28-1,2.03-1.35.75-.35,1.72-.53,2.92-.53,2.5,0,4.75.05,6.75.15,2,.1,3.9.3,5.7.6l1.5.3.75.45ZM151.51,83.36c-.2,2.1-.35,4.05-.45,5.85-.1,1.8-.13,3.55-.08,5.25.05,1.7.17,3.48.38,5.32.2,1.85.5,3.98.9,6.38,1.1,2,2.33,3.98,3.68,5.93,1.35,1.95,2.77,3.7,4.27,5.25,1.5,1.55,3.08,2.82,4.73,3.82,1.65,1,3.27,1.5,4.88,1.5,2.9,0,5.75-.9,8.55-2.7,2.8-1.8,5.8-4.3,9-7.5,1.6-2.5,3.05-5.15,4.35-7.95,1.3-2.8,2.3-6.1,3-9.9v-.45c0-1,.12-1.95.38-2.85.25-.9.47-1.65.67-2.25-.1-.5-.15-1.07-.15-1.72v-1.28c.2-.6.55-1.1,1.05-1.5l1.5-12.15c-.2-1.7-.48-3.85-.83-6.45-.35-2.6-.78-5.05-1.27-7.35-.8-1.3-1.48-2.72-2.03-4.27-.55-1.55-.93-2.97-1.12-4.28l-.15-3.6c-.5-2.8-.85-5-1.05-6.6-.2-1.6-.15-3.1.15-4.5-.8-.8-1.35-1.52-1.65-2.17-.3-.65-.55-1.37-.75-2.17-.1-.3-.28-.9-.52-1.8-.25-.9-.58-1.88-.98-2.93-.4-1.05-.83-2.15-1.27-3.3-.45-1.15-.88-2.17-1.28-3.08l-.9-1.2-1.05-1.5c-.5-.7-1-1.35-1.5-1.95l-1.35-.3c-.9.4-1.95.75-3.15,1.05s-2.2.55-3,.75c-1.3-.1-2.43.18-3.38.83-.95.65-1.88,1.42-2.77,2.32-1.2,1.1-2.25,2.75-3.15,4.95-.9,2.2-1.75,4.05-2.55,5.55l-.6,4.05-2.1,1.5c-.4,1.3-1,2.68-1.8,4.12-.8,1.45-1.7,2.73-2.7,3.82-.8,2.2-1.6,4.55-2.4,7.05-.8,2.5-1.45,4.6-1.95,6.3,0,.8-.03,1.9-.08,3.3-.05,1.4-.1,2.88-.15,4.42-.05,1.55-.1,3.08-.15,4.58-.05,1.5-.08,2.85-.08,4.05v3.15c0,.9.05,1.55.15,1.95l.75,4.65Z"/>
  <path class="cls-1" d="M304.96,49.61c1.1,1.8,1.7,3.05,1.8,3.75.2.3.5.83.9,1.58.4.75.7,1.42.9,2.03.6,1,1.05,2.15,1.35,3.45.2.7.35,1.4.45,2.1.5,1,1.05,2.25,1.65,3.75.6,1.5,1.15,2.7,1.65,3.6l3.9,4.05-1.05,1.35c.3.2.97.73,2.02,1.58,1.05.85,1.67,1.48,1.88,1.88.2.7,0,1.4-.6,2.1-.3.4-.6.8-.9,1.2l3.3,2.25c.1.6.25,1.15.45,1.65.2.5.35,1,.45,1.5.1.5.25.95.45,1.35.3.5.52,1.18.67,2.02.15.85.47,1.93.97,3.23.2-.6.35-1.37.45-2.33.1-.95.15-1.82.15-2.62v-3.15l2.85-4.8,1.5-1.65-1.65-2.55-1.2-7.95-.75-3.9c.2-.3.45-.7.75-1.2.3-.5.65-.95,1.05-1.35l.15-1.35-1.65-3.75c.1-.2.2-.5.3-.9.2-.6.3-1.25.3-1.95,0-.4.05-.95.15-1.65.1-.7.25-1.4.45-2.1.2-.8.35-1.65.45-2.55l2.85-17.4c.2-1,.45-1.95.75-2.85.2-.5.35-1.05.45-1.65l2.7-5.85.9-5.25,3.15-2.55c.5.4.9,1,1.2,1.8.3.8.55,1.7.75,2.7.2,1.4.3,2.68.3,3.82s-.1,1.83-.3,2.03c-.3.5-.55.97-.75,1.42-.2.45-.4,1.08-.6,1.88l-1.2,7.05-1.95,3.6,1.05,1.8-1.05,6.45c-.2.6-.3,1-.3,1.2-.2.5-.33.93-.38,1.27-.05.35-.03.83.08,1.42v-.15c.5.7.3,1.9-.6,3.6l-.75,2.4c0,.4-.05.8-.15,1.2-.1.4-.18.8-.22,1.2-.05.4-.03.75.08,1.05l1.05,9.6-.6,9c.1,1,.2,2,.3,3,.1.8.12,1.68.07,2.62-.05.95-.18,1.72-.38,2.33-.5,1.1-.85,2.15-1.05,3.15-.1.5-.15,1-.15,1.5-.2.4-.53,1.35-.98,2.85s-.83,2.45-1.12,2.85l1.5,2.85c0,.4.05.8.15,1.2.1.3.15.6.15.9v.75l-1.2,7.2-.15,6.9c.2.5.38.9.53,1.2.15.3.32.6.52.9l.45.9-.15,4.2c-.5.3-.95.6-1.35.9-.4.2-.8.45-1.2.75-.4.3-.7.5-.9.6-.4.2-1.03-.03-1.88-.67-.85-.65-1.43-1.08-1.73-1.28-.2-.3-.38-.95-.52-1.95-.15-1-.28-1.9-.38-2.7-.1-.3-.18-.55-.23-.75-.05-.2-.08-.45-.08-.75-.3-.4-.55-.93-.75-1.58-.2-.65-.4-1.33-.6-2.03-.2-.8-.4-1.65-.6-2.55-1.5-3.5-2.7-7.1-3.6-10.8-.9-3.7-2.1-7.3-3.6-10.8-.4-.8-.8-1.65-1.2-2.55-.3-.8-.58-1.6-.83-2.4-.25-.8-.38-1.5-.38-2.1-.1-.2-.2-.35-.3-.45-.1-.1-.2-.25-.3-.45l-.45-.45-.3-.15.9-3.3-2.85-.45-3.6-3c-.1-.7-.25-1.4-.45-2.1-.2-.6-.43-1.17-.67-1.72-.25-.55-.48-1.02-.68-1.42-.2-.4-.2-1.1,0-2.1.1-.4.25-.85.45-1.35-.1-.8-.38-1.45-.83-1.95-.45-.5-.73-1.15-.82-1.95l-.75-.6-1.95-3.3-2.7-3.45-1.05-2.55-1.05-1.8-2.85-2.7-.9-1.2-1.8-2.55-.3-4.95-1.95-.3c-.6-.5-1.2-1.75-1.8-3.75l-.45-1.65c-.1-.2-.2-.45-.3-.75-.1-.3-.2-.55-.3-.75-.1-.3-.2-.5-.3-.6l-.75-3.15-3.15-3.6-3-3.15-.15.45-.9,4.8,1.65,3.45-.3.6c-.2.4-.25.85-.15,1.35l.45,1.65c.5,2,.6,3.35.3,4.05l-1.5,1.35,2.25,4.35c-.1,1.2-.15,1.98-.15,2.33v1.28c0,.1-.1.45-.3,1.05l-1.05,3.75v2.1l.3,2.7.15,3.75v3.6h.45l-.3,1.5-.3.15.45,1.35-2.25.6,1.5,2.1-.3.3c-.1.1-.2.25-.3.45-.1.2-.15.55-.15,1.05.2.6.27,1.33.22,2.18-.05.85-.08,1.68-.08,2.47-.1,1-.15,1.95-.15,2.85-.1,1.9-.13,3.63-.08,5.18.05,1.55.12,3.1.22,4.65.1,1.55.17,3.1.23,4.65.05,1.55.02,3.28-.08,5.17l.3,2.7c.2,1.6.2,2.9,0,3.9.1.4.15.9.15,1.5.2.8.38,1.68.52,2.62.15.95.23,1.63.23,2.03-.2.3-.6.88-1.2,1.72-.6.85-1.1,1.28-1.5,1.28-.8,0-1.65-.15-2.55-.45-.5-.1-1.05-.25-1.65-.45l-1.5-4.05c.1-.6.2-1.15.3-1.65.1-.5.15-1.02.15-1.58s.05-1.17.15-1.88c.2-1.1.27-2.1.22-3-.05-.9-.13-1.45-.22-1.65-.3-.7-.63-1.9-.98-3.6-.35-1.7-.33-3.7.08-6,.5-2.5.6-4.37.3-5.62-.3-1.25-.35-2.27-.15-3.08,0-.4-.03-.87-.08-1.42-.05-.55-.08-1.07-.08-1.58-.1-.5-.15-1.05-.15-1.65l2.55-3.15c-.5-.2-.95-.45-1.35-.75-.3-.2-.6-.47-.9-.83-.3-.35-.4-.67-.3-.97.1-.5.47-1.28,1.12-2.33.65-1.05,1.07-1.77,1.28-2.17v-.15l-1.35-.9.45-2.7.45.15c-.1-.5-.15-1.02-.15-1.58v-1.27c-.1-.4-.18-.9-.23-1.5-.05-.6-.08-1.45-.08-2.55v-2.1c0-1,.02-2.07.08-3.22.05-1.15.08-2.17.08-3.08v-3.15c.2-.6.4-1.15.6-1.65.3-1,.3-1.75,0-2.25-.3-.2-.48-.57-.52-1.12-.05-.55-.08-1.17-.08-1.88,0-.8.05-1.65.15-2.55.2-1.9.17-3.55-.08-4.95-.25-1.4-.43-2.6-.53-3.6,0-.2.02-.55.08-1.05.05-.5.12-1,.22-1.5.1-.6.2-1.25.3-1.95.5-1.5,1-2.97,1.5-4.42.5-1.45,1.45-2.82,2.85-4.12l1.95-.3,3.6,1.8,4.5,6.6,1.2,1.5c.3.4.57.8.83,1.2.25.4.47.7.67.9,1,.9,1.6,2,1.8,3.3.2,1.3.7,2.55,1.5,3.75l.6.6c.4.6.8,1.2,1.2,1.8.6,1.1,1,2.2,1.2,3.3,0,.5.4,1.15,1.2,1.95.4.4.8.75,1.2,1.05.5.8,1.05,1.7,1.65,2.7.5.8,1.05,1.7,1.65,2.7.6,1,1.15,1.9,1.65,2.7l1.95,1.95Z"/>
  <path class="cls-1" d="M399.3,21.26c1,.1,2.4.05,4.2-.15,1.8-.2,3.67-.42,5.62-.67,1.95-.25,3.8-.53,5.55-.83,1.75-.3,3.08-.55,3.98-.75l1.65-.3,4.05-.45c.1,0,.17-.02.23-.08.05-.05.12-.07.22-.07l5.7-1.35h1.2c.3,0,.55-.05.75-.15l-.45-1.5c-.3-.9-.55-1.8-.75-2.7-.2-.3-.35-.55-.45-.75-.1-.2-.2-.4-.3-.6-.1-.2-.2-.35-.3-.45l1.95-4.35,6.15,1.95v5.25l.6,2.4h5.1l13.65.3-.3,2.1c-.1.5-.33,1.3-.67,2.4-.35,1.1-.78,1.8-1.27,2.1l-9.9,1.5c-.7.1-1.5.13-2.4.08-.9-.05-1.8-.08-2.7-.08v24.15c-.2.8-.2,1.45,0,1.95,0,.4.05.7.15.9l-2.1,2.4h1.05c.1.9.15,1.95.15,3.15s-.15,2.2-.45,3c-.3.6-.53,1.18-.67,1.73-.15.55-.28,1.08-.38,1.58-.1.5-.15,1-.15,1.5-.2.3-.45.73-.75,1.27-.3.55-.55.98-.75,1.28l.9,2.85c0,.5.05.95.15,1.35,0,.4.02.73.08.97.05.25.08.48.08.67l-1.35,7.05-.3,12.3-.45,2.25c.1.4.12.85.08,1.35-.05.5-.13.95-.22,1.35-.1.5-.18.9-.23,1.2-.05.3.02.7.23,1.2.3.8.47,1.63.52,2.47.05.85.08,1.58.08,2.18-.1.5-.1.9,0,1.2-.1.5-.13,1.03-.08,1.58.05.55.12,1.08.23,1.58.1.5.2,1.05.3,1.65l-1.05,1.2c.2.4.35.8.45,1.2.2,1-.05,1.9-.75,2.7-.4,1.1-.6,2.2-.6,3.3v1.5l-2.4-.9c-.7-.2-1.35-.45-1.95-.75-.6-.3-1-.55-1.2-.75l.3-10.35c.1-.5.2-1.05.3-1.65.1-.5.12-1.05.08-1.65-.05-.6-.13-1.15-.22-1.65-.2-1.2-.38-2.37-.53-3.52-.15-1.15-.18-2.07-.08-2.78l.6-13.2c.2-.6.35-1.2.45-1.8.1-.6.2-1.15.3-1.65l.45-1.95c0-.7-.15-1.45-.45-2.25-.2-.4-.35-.9-.45-1.5-.4-1-.7-1.95-.9-2.85-.2-.8-.33-1.6-.38-2.4-.05-.8.12-1.45.53-1.95.3-1.2.55-2.45.75-3.75.1-.7.2-1.45.3-2.25.4-1.7.8-3.38,1.2-5.03.4-1.65.9-3.17,1.5-4.57.2-.3.3-.65.3-1.05v-2.4l-.3-2.55c-.6-1.9-.6-3.1,0-3.6v.15c.2-.6.3-1.07.3-1.42s-.05-.77-.15-1.28c0-.2-.03-.4-.08-.6-.05-.2-.08-.45-.08-.75v-6.45l2.25-.9-2.25-4.65v-.75c-.2,0-.33-.02-.38-.08-.05-.05-.13-.08-.22-.08l-4.95,1.05-2.25.15h-2.85c-.4,0-.95.08-1.65.22-.7.15-1.42.3-2.17.45s-1.45.28-2.1.38c-.65.1-1.08.15-1.27.15-1-.2-2.28-.27-3.83-.23-1.55.05-3.03.08-4.42.08l-1.5.15-7.35,1.2,1.5-6.9Z"/>
  <path class="cls-1" d="M534,95.36c-.9,1.1-1.8,2.1-2.7,3s-1.5,2-1.8,3.3c-.7,2.1-1.68,4.28-2.93,6.53-1.25,2.25-2.28,3.72-3.07,4.42l-.3.75c-.1.5-.28,1.2-.52,2.1-.25.9-.53,1.88-.83,2.92s-.63,2.05-.97,3c-.35.95-.63,1.62-.83,2.02l-1.35,2.4c-.1.1-.22.32-.38.67-.15.35-.33.62-.52.83l-2.25,1.5c-.3.4-1.05.62-2.25.67-1.2.05-2.15.08-2.85.08-1.3-.7-2.1-2-2.4-3.9-.2-1.7-.03-3.6.52-5.7.55-2.1,1.17-3.95,1.88-5.55l1.35-2.55c.2-.8.72-1.7,1.58-2.7.85-1,1.82-2.2,2.92-3.6.6-1.1,1.25-2.2,1.95-3.3.7-1.1,1.45-2.2,2.25-3.3,1.1-1.7,2.17-3.4,3.22-5.1,1.05-1.7,1.92-3.4,2.62-5.1.4-1.4.87-2.85,1.42-4.35.55-1.5,1.17-3,1.88-4.5l1.2-4.05.9-3.6,1.2-2.1c.6-.6,1.1-1.15,1.5-1.65.4-.5.77-1,1.12-1.5.35-.5.62-.95.83-1.35.2-.3.38-.57.53-.82.15-.25.32-.47.52-.68.2-.3.4-.55.6-.75l3.3-3.45v-.9l1.5-3.45,3.15-6,1.35-2.4.9-1.8.75-3.9v-1.05c0-.1.05-.25.15-.45l1.2-3,1.35-1.05c.3-.5.55-1,.75-1.5.2-.5.4-1,.6-1.5l.45-.75c.1-.3.25-.68.45-1.12.2-.45.5-.92.9-1.43,0-.1.02-.2.08-.3.05-.1.08-.25.08-.45.2-.7.27-1.25.22-1.65-.05-.4.02-.9.22-1.5,0-.2.12-.53.38-.98.25-.45.47-.77.68-.97l1.2-4.2c.8-1.9,1.9-3.97,3.3-6.22,1.4-2.25,2.5-4.07,3.3-5.48,1-.8,2.15-1.22,3.45-1.27,1.3-.05,2.5.28,3.6.97.7.3,1.07.73,1.12,1.28.05.55-.05,1.15-.3,1.8-.25.65-.6,1.3-1.05,1.95-.45.65-.83,1.27-1.12,1.88-.2.5-.55,1-1.05,1.5,0,1.7-.22,3.2-.67,4.5-.45,1.3-1.08,2.8-1.88,4.5l-1.05,1.35-2.85,6.15-.15.3.15.3c0,.2.45.75,1.35,1.65l1.5,1.5,1.2,2.4c.2.5.4.95.6,1.35.4.9.65,1.75.75,2.55l2.25,4.35,1.5,1.95.6,2.85.75,4.65c0,.2.1.63.3,1.28.2.65.42,1.35.67,2.1.25.75.5,1.5.75,2.25.25.75.47,1.28.67,1.58.1.1.27.35.53.75.25.4.57.88.97,1.42.4.55.8,1.08,1.2,1.58.4.5.75.9,1.05,1.2l5.55,7.35,4.65,5.25c.1.6.15,1.1.15,1.5v1.2c0,.4.05.75.15,1.05,0,.2.3.93.9,2.17.6,1.25,1.15,2.43,1.65,3.53.1,0,.3.25.6.75.3.5.6,1.05.9,1.65.3.6.7,1.4,1.2,2.4.2.2.32.5.38.9.05.4.12.8.23,1.2l.3,1.5,4.8,10.35c.6,1.6,1.2,3.05,1.8,4.35.5,1.1,1.07,2.22,1.73,3.38.65,1.15,1.22,2.03,1.72,2.62-.1,1.1-.2,1.97-.3,2.62-.1.65-.25,1.3-.45,1.95-.2.65-.4,1.02-.6,1.12-.2.2-.7.42-1.5.67-.8.25-1.45.27-1.95.08-.3-.3-.83-.65-1.58-1.05-.75-.4-1.23-.85-1.42-1.35l-1.5-4.5c-.3-.3-.53-.75-.67-1.35-.15-.6-.28-1.2-.38-1.8-.1-.7-.15-1.45-.15-2.25l-.75-1.5c-.8-1.2-1.55-2.35-2.25-3.45-.6-.9-1.15-1.77-1.65-2.62-.5-.85-.85-1.42-1.05-1.72,0-.1-.05-.27-.15-.53-.1-.25-.2-.52-.3-.83l-18.3-1.8-7.05-3-2.7,1.2c-.6-.1-1.42-.3-2.47-.6-1.05-.3-2.13-.6-3.23-.9-1.1-.3-2.1-.6-3-.9-.9-.3-1.45-.45-1.65-.45l-4.2.15-4.5-.15c-.7-.1-1.35-.2-1.95-.3-.6-.1-1.23-.2-1.88-.3-.65-.1-1.23-.2-1.72-.3-1.2-.1-1.85-.25-1.95-.45h-.6ZM572.25,92.66c.1,0,.57.08,1.42.23.85.15,1.88.33,3.08.52,1.2.2,2.52.43,3.97.68,1.45.25,2.82.48,4.12.67l-3.15-5.4.6-1.8-1.8-2.4c-.5-.6-1-1.2-1.5-1.8-.5-.6-.85-1-1.05-1.2l-2.25-3c-.7-.8-1.1-1.5-1.2-2.1-.1-.4-.15-.75-.15-1.05l.15-2.4-1.95-.6-2.55-4.35-1.65-2.55c-.3-.6-.6-1.25-.9-1.95-.2-.6-.43-1.35-.67-2.25-.25-.9-.48-1.9-.67-3-.1-.2-.25-.75-.45-1.65-.2-.9-.3-1.6-.3-2.1,0-.7-.25-1.2-.75-1.5l-.6-.45c-.4-.6-.75-1.2-1.05-1.8-.2-.4-.35-.75-.45-1.05l-1.8-3.3c-.3-.7-.6-1.4-.9-2.1-.5-1.3-.75-2.45-.75-3.45l-.3-.3-1.35,2.85c-.4.8-.83,1.72-1.27,2.78-.45,1.05-.88,2.08-1.28,3.07l-2.1,4.65c-.8,1.7-1.45,2.9-1.95,3.6-.2.3-.5.83-.9,1.58-.4.75-.8,1.38-1.2,1.88-.2.5-.48,1.12-.82,1.88-.35.75-.68,1.42-.98,2.03-.4.8-.75,1.55-1.05,2.25-.5.9-1,2.17-1.5,3.83-.5,1.65-1,2.88-1.5,3.67l-.45,2.7-1.5,3-1.65-.15c-.1.4-.1,1.2,0,2.4.1,1.2.15,2.05.15,2.55,1.7.5,3.2,1.03,4.5,1.58,1.3.55,2,.88,2.1.97l1.8.3c.3,0,.65-.05,1.05-.15.4-.1.95-.17,1.65-.23.7-.05,1.6-.17,2.7-.38,1.4,0,3.05.23,4.95.67,1.9.45,3.25.93,4.05,1.43.3.1.88.28,1.73.52.85.25,1.8.53,2.85.83s2.07.58,3.08.83c1,.25,1.8.43,2.4.52Z"/>
  <path class="cls-1" d="M669.3,63.26l1.5,8.4c.2.5.1,1.05-.3,1.65-.2.4-.4.7-.6.9-.1.2-.2.45-.3.75-.2.5-.35,1.1-.45,1.8-.2.8-.38,1.4-.53,1.8-.15.4-.22.7-.22.9-.1.3-.1.45,0,.45l.9.75c.1.2.17.48.23.83.05.35.12.78.22,1.28.1.5.15,1.1.15,1.8v2.7c0,.4.1.7.3.9,0,.2.1.5.3.9.1.2.2.35.3.45l1.65,3.15.6,3c.6.2.95.35,1.05.45.5.2.75.7.75,1.5v1.35c-.1,1-.1,1.9,0,2.7.1.7.22,1.4.38,2.1.15.7.42,1.2.82,1.5.1.1.23.13.38.08.15-.05.27-.08.38-.08.2.2.47.4.83.6.35.2.62.4.83.6.3.3.6.55.9.75l.45,2.55,4.2,2.7-.3,1.8c.2.1.5.35.9.75l2.85.75-.3,2.1,1.65.3v.45c.2.1.45.27.75.53.3.25.6.47.9.67.1.1.25.15.45.15s.38.02.52.07c.15.05.38.08.68.08l1.65.9,1.95-.15,9.45-3.45,4.95-3.3,1.05-.6,1.8-.9,3.3.45c0-.2.02-.58.08-1.12.05-.55.02-.92-.08-1.12,0-.4.3-.9.9-1.5.3-.3.6-.5.9-.6.2-.2.4-.45.6-.75.4-.6.75-1.05,1.05-1.35.5-.7.87-1.2,1.12-1.5.25-.3.42-.55.53-.75l.15-.3-.15-.15c-.2-.2-.35-.55-.45-1.05-.1-.2-.05-.45.15-.75.2-.3.4-.65.6-1.05.3-.4.6-.85.9-1.35.1-.2.2-.5.3-.9.1-.2.17-.45.22-.75.05-.3.12-.55.22-.75v-1.65l.75-.6c0-.2.05-.5.15-.9.1-.3.15-.65.15-1.05s.05-.85.15-1.35c0-.4.3-.9.9-1.5l.9-.9c0-.1-.03-.25-.07-.45-.05-.2-.03-.65.07-1.35l.45-1.2,2.25-2.25,2.25,2.1v.6c0,.2-.1.5-.3.9-.1.8-.15,1.8-.15,3v2.1c-.7.9-.85,2-.45,3.3v.6c0,.2-.03.38-.08.52-.05.15-.08.33-.08.53-.1.3-.18.63-.22.97-.05.35-.18.67-.38.98l-.45,1.35c-.5.3-.8.6-.9.9-.1.2-.15.35-.15.45v.6c0,.7.15,1.25.45,1.65v.6c0,.3.05.7.15,1.2.2,1,.35,2.15.45,3.45.1,1.3-.2,2.2-.9,2.7-.2.2-.38.35-.52.45-.15.1-.33.2-.53.3l-.6.3-2.1,5.85-3.15-.45c-.4.7-.7,1.28-.9,1.72-.2.45-.38.88-.53,1.28-.15.4-.28.65-.38.75-.5.5-1.1.85-1.8,1.05-.4.1-.7.15-.9.15l-2.85-.15c0,.1-.1.2-.3.3-.2.1-.35.15-.45.15l-.9.6c-.5.3-1,.55-1.5.75-.1-.1-.2-.15-.3-.15-.2,0-.35-.05-.45-.15-.5.2-1.35.55-2.55,1.05-1.2.5-2.35.95-3.45,1.35-.2.1-.7.25-1.5.45-.4.1-.75.2-1.05.3l-2.7-.75h-.3c-.5,0-1-.05-1.5-.15-.6-.1-1.3-.05-2.1.15l-1.2.3c-1-.2-1.83-.53-2.47-.97-.65-.45-1.38-1.23-2.17-2.33-.1,0-.3-.05-.6-.15-.2-.1-1.2-.3-3-.6l-1.35-.45-2.25-2.7c-.9-.7-1.95-1.4-3.15-2.1l-.9-1.5c-.2-.4-.4-.8-.6-1.2-.2-.4-.4-.7-.6-.9-.4-.6-.6-1.35-.6-2.25-.1-.5-.1-1.05,0-1.65-.1,0-.43-.23-.97-.67-.55-.45-1.72-1.47-3.53-3.08-.8-1.2-1.45-2.3-1.95-3.3l-.75-.15c-.1-.1-.15-.25-.15-.45-.1-.2-.15-.55-.15-1.05-.2-.7-.5-1.62-.9-2.78-.4-1.15-.6-1.82-.6-2.02.3-1-.05-2.1-1.05-3.3-.3-.9-.6-1.75-.9-2.55-.5-1.5-1-2.5-1.5-3-.4-.4-.5-1.05-.3-1.95l-.3-1.35c.4-.4.6-.75.6-1.05v-.45c0-.1-.05-.3-.15-.6-.1-.2-.22-.42-.38-.67-.15-.25-.38-.47-.67-.68.1-.1.08-.3-.08-.6s-.33-.65-.53-1.05c-.6-.9-1.18-1.95-1.72-3.15-.55-1.2-.58-2.2-.08-3,.1-.2.35-.5.75-.9.2-.2.35-.4.45-.6v-4.2c-.1,0-.2-.05-.3-.15-.1,0-.15-.05-.15-.15-.4-1-.6-1.92-.6-2.77s.25-1.88.75-3.08c0-.1-.05-.3-.15-.6-.1-.2-.25-.52-.45-.97-.2-.45-.4-1.07-.6-1.88l-.45-1.35,1.05-3.3v-3.75c.2-.6.45-1.1.75-1.5.6-.9.95-1.65,1.05-2.25.2-.5.7-1.1,1.5-1.8.4-.4.85-.7,1.35-.9,0-.1.02-.47.08-1.12.05-.65.27-2.22.67-4.73.6-1.3,1.12-2.37,1.58-3.22.45-.85.87-1.55,1.27-2.1.4-.55.83-1.02,1.28-1.42.45-.4.97-.85,1.58-1.35l1.8-1.35.3-1.95,2.1-2.85,1.2-1.8,2.25-2.7,6.45-5.7h1.95l.6-2.55,1.95-1.65h2.85l5.4,1.05.15-.75,3.6.6,4.8-2.55,2.7,1.5,5.4,1.35,1.5,1.8c1-.2,2.17.2,3.52,1.2,1.35,1,2.27,1.85,2.78,2.55l4.05,1.95c4,4.1,6.3,7.45,6.9,10.05.2.3.42.65.67,1.05.25.4.53.75.83,1.05s.65.93,1.05,1.88c.4.95.65,1.78.75,2.47.2.3.4.88.6,1.73.2.85.35,1.72.45,2.62.1.9.15,1.72.15,2.47s-.05,1.18-.15,1.28c-.5.5-.95.8-1.35.9-.3.1-.55.2-.75.3l-3.45-.9c-.8-.3-1.45-.9-1.95-1.8-.5-.9-.95-1.85-1.35-2.85-.4-1-.73-1.95-.98-2.85-.25-.9-.43-1.55-.52-1.95-.8-.7-1.45-1.5-1.95-2.4-.5-.9-.8-1.8-.9-2.7l-3.15-1.65-6.3-6c-.8.8-1.7,1.35-2.7,1.65-1,.3-1.65.35-1.95.15.2.1.02-.07-.53-.52-.55-.45-1.08-.77-1.57-.98-.3-.2-.65-.42-1.05-.67-.4-.25-.7-.52-.9-.83l-4.5.6-3.15-.45-3,2.25-.3-.6-3.3,1.35-.75-.15-8.25,1.5,1.05,2.85-4.95,1.8-.75,2.4c.1.2.27.62.53,1.27.25.65.38,1.03.38,1.12.1.5-.2,1-.9,1.5-.4.3-.8.55-1.2.75-.9.5-1.65,1-2.25,1.5-.5.5-1,1-1.5,1.5-.5.5-.75,1-.75,1.5,0,.4.1.6.3.6v1.05c0,.4-.05.8-.15,1.2-.1.4-.15.8-.15,1.2l-1.8,1.5v5.1l-1.5.6c0,.2-.05.4-.15.6-.1.2-.1.4,0,.6l.9,2.85-1.95.75.75,1.65-.45.15c0,.3-.03.65-.08,1.05-.05.4-.08.75-.08,1.05,0,.1.05.25.15.45.1.2.17.4.22.6.05.2.17.4.38.6v.9l-.15.15Z"/>
  <path class="cls-1" d="M792.6,21.26c1,.1,2.4.05,4.2-.15,1.8-.2,3.67-.42,5.62-.67,1.95-.25,3.8-.53,5.55-.83,1.75-.3,3.08-.55,3.97-.75l1.65-.3,4.05-.45c.1,0,.17-.02.23-.08.05-.05.12-.07.22-.07l5.7-1.35h1.2c.3,0,.55-.05.75-.15l-.45-1.5c-.3-.9-.55-1.8-.75-2.7-.2-.3-.35-.55-.45-.75-.1-.2-.2-.4-.3-.6-.1-.2-.2-.35-.3-.45l1.95-4.35,6.15,1.95v5.25l.6,2.4h5.1l13.65.3-.3,2.1c-.1.5-.33,1.3-.67,2.4-.35,1.1-.78,1.8-1.28,2.1l-9.9,1.5c-.7.1-1.5.13-2.4.08-.9-.05-1.8-.08-2.7-.08v24.15c-.2.8-.2,1.45,0,1.95,0,.4.05.7.15.9l-2.1,2.4h1.05c.1.9.15,1.95.15,3.15s-.15,2.2-.45,3c-.3.6-.53,1.18-.68,1.73-.15.55-.28,1.08-.38,1.58-.1.5-.15,1-.15,1.5-.2.3-.45.73-.75,1.27-.3.55-.55.98-.75,1.28l.9,2.85c0,.5.05.95.15,1.35,0,.4.02.73.08.97.05.25.08.48.08.67l-1.35,7.05-.3,12.3-.45,2.25c.1.4.12.85.08,1.35-.05.5-.13.95-.22,1.35-.1.5-.18.9-.23,1.2-.05.3.02.7.23,1.2.3.8.47,1.63.52,2.47.05.85.08,1.58.08,2.18-.1.5-.1.9,0,1.2-.1.5-.13,1.03-.08,1.58.05.55.12,1.08.23,1.58.1.5.2,1.05.3,1.65l-1.05,1.2c.2.4.35.8.45,1.2.2,1-.05,1.9-.75,2.7-.4,1.1-.6,2.2-.6,3.3v1.5l-2.4-.9c-.7-.2-1.35-.45-1.95-.75-.6-.3-1-.55-1.2-.75l.3-10.35c.1-.5.2-1.05.3-1.65.1-.5.12-1.05.08-1.65-.05-.6-.13-1.15-.22-1.65-.2-1.2-.38-2.37-.53-3.52-.15-1.15-.18-2.07-.08-2.78l.6-13.2c.2-.6.35-1.2.45-1.8.1-.6.2-1.15.3-1.65l.45-1.95c0-.7-.15-1.45-.45-2.25-.2-.4-.35-.9-.45-1.5-.4-1-.7-1.95-.9-2.85-.2-.8-.33-1.6-.38-2.4-.05-.8.12-1.45.53-1.95.3-1.2.55-2.45.75-3.75.1-.7.2-1.45.3-2.25.4-1.7.8-3.38,1.2-5.03.4-1.65.9-3.17,1.5-4.57.2-.3.3-.65.3-1.05v-2.4l-.3-2.55c-.6-1.9-.6-3.1,0-3.6v.15c.2-.6.3-1.07.3-1.42s-.05-.77-.15-1.28c0-.2-.03-.4-.07-.6-.05-.2-.08-.45-.08-.75v-6.45l2.25-.9-2.25-4.65v-.75c-.2,0-.33-.02-.38-.08-.05-.05-.13-.08-.23-.08l-4.95,1.05-2.25.15h-2.85c-.4,0-.95.08-1.65.22-.7.15-1.43.3-2.18.45s-1.45.28-2.1.38c-.65.1-1.08.15-1.28.15-1-.2-2.28-.27-3.82-.23-1.55.05-3.03.08-4.43.08l-1.5.15-7.35,1.2,1.5-6.9Z"/>
</svg>