<?xml version="1.0" encoding="UTF-8"?>
<svg id="Layer_1" data-name="Layer 1" xmlns="http://www.w3.org/2000/svg" viewBox="0 0 912.77 140.37">
  <defs>
    <style>
      .cls-1 {
        stroke: #000;
        stroke-miterlimit: 10;
        stroke-width: 10px;
      }
    </style>
  </defs>
  <path class="cls-1" d="M25.32,84.56v-.75c0-.3.05-.6.15-.9l.3-1.2.3-.45c-.2-.5-.43-1-.67-1.5-.25-.5-.63-1-1.12-1.5-.4-.5-.7-1.2-.9-2.1-.2-.9-.4-1.75-.6-2.55-.2-1-.3-2-.3-3l-1.65-5.7-1.2-9.75c0-.3-.05-.65-.15-1.05-.1-.4-.2-.75-.3-1.05-.2-.4-.35-.75-.45-1.05l-1.35-2.4c-1.1-1.5-1.55-2.6-1.35-3.3,0-.8-.2-1.6-.6-2.4-.4-.4-.65-.8-.75-1.2l.3-2.4,1.8-1.65-3.9-3.6-2.55-6.45c-.2-.8-.48-1.37-.83-1.73-.35-.35-.73-.72-1.12-1.12l-1.8-2.4-1.05-1.05c-.2-.1-.35-.2-.45-.3l.15-4.65.6-.45,4.8-3.75,1.2-.9c.8-.6,1.3-1,1.5-1.2.3-.2.85-.3,1.65-.3h2.4c1,0,2.05.05,3.15.15.5-.2,1.15-.52,1.95-.98.8-.45,1.5-.77,2.1-.97.2-.2.42-.35.67-.45.25-.1.47-.25.67-.45l4.35.15,3.75,1.65.3.3c.4,0,.95.03,1.65.08.7.05,1.43.15,2.18.3s1.45.3,2.1.45c.65.15,1.12.33,1.42.52.2.3.5.85.9,1.65.2.4.4.75.6,1.05.3.5.87,1.05,1.73,1.65.85.6,1.47,1.15,1.88,1.65l1.05,1.5,1.05,1.05c0,.1.05.25.15.45,0,.2.1.5.3.9l.3.45c.2.2.3.4.3.6.1.1.25.3.45.6v1.05c.3,1.5.75,2.6,1.35,3.3l.75,3.3c-.7,2.5-1.55,4.85-2.55,7.05-1,2.2-2.1,4.1-3.3,5.7-3.3,3.4-6.6,6-9.9,7.8-3.3,1.8-6.6,2.95-9.9,3.45l-.6,1.95.45,1.2c.5.4.87.78,1.12,1.12.25.35.57.63.98.82l.15,4.05v5.1l-.45,3,1.05,1.05,2.85,3.15c.6.4,1,.83,1.2,1.27.2.45.45.88.75,1.28.2.5.27,1.15.22,1.95-.05.8-.18,1.6-.38,2.4l-.9,2.7-.6,1.5c-.4,1-.55,1.75-.45,2.25l.3,1.95.6,3.45.15,13.2c.1.7.05,1.63-.15,2.78-.2,1.15-.45,2.32-.75,3.52-.2.5-.3,1.05-.3,1.65s.05,1.15.15,1.65c.1.6.2,1.15.3,1.65l-.15,10.5c-.3.2-.75.4-1.35.6-.6.2-1.25.4-1.95.6-.8.3-1.6.6-2.4.9v-1.65c0-1-.15-2.05-.45-3.15-.4-.5-.62-.98-.67-1.42-.05-.45-.03-.88.08-1.28.1-.4.3-.8.6-1.2l-1.2-1.2c.2-.6.35-1.15.45-1.65.1-.5.17-1.03.23-1.58.05-.55.08-1.08.08-1.57.1-.4.1-.8,0-1.2,0-.7.05-1.48.15-2.32.1-.85.3-1.63.6-2.33.2-.5.3-.92.3-1.27s-.05-.77-.15-1.28c-.1-.4-.18-.85-.22-1.35-.05-.5.02-.95.22-1.35l-.3-2.25v-12.15l-1.05-7.2ZM23.52,43.91c.2.5.4.95.6,1.35.2.4.38.83.53,1.27.15.45.32.93.52,1.43,1.9-.8,4.3-1.97,7.2-3.53,2.9-1.55,5.45-3.38,7.65-5.47.9-1.4,1.77-3.1,2.62-5.1.85-2,1.62-4.05,2.32-6.15l-.45-1.35-.9-.75c0-.1-.1-.45-.3-1.05-.1-.2-.23-.42-.38-.67-.15-.25-.28-.52-.38-.83-.2-.1-.4-.2-.6-.3-.2-.1-.4-.25-.6-.45-.3-.2-.5-.35-.6-.45l-2.1-.75c-.5-.3-.95-.65-1.35-1.05-.9-.7-1.6-1.15-2.1-1.35l-3.75-1.35c-.7.2-1.25.25-1.65.15h-1.95c-.4,0-.83-.1-1.28-.3-.45-.2-.88-.2-1.27,0-.1,0-.5.03-1.2.07-.7.05-1.6.33-2.7.83-.5.2-.88.33-1.12.38-.25.05-.48.13-.67.23l-6,3,3.9,5.25c.3.5.6.95.9,1.35.5.8.9,1.75,1.2,2.85l3.9,12.75Z"/>
  <path class="cls-1" d="M123.26,57.11l-.15.3c.2.8.3,1.58.3,2.33s.1,1.53.3,2.32c.3.3.6.65.9,1.05.6.8.9,1.4.9,1.8-.2.5-.28,1.05-.22,1.65.05.6.12,1.2.22,1.8.1.7.25,1.4.45,2.1l-1.2,7.05-.3,4.2-.3.15c0,.2-.05.4-.15.6-.2.5-.25.85-.15,1.05.2.6.32,1.33.38,2.17.05.85.08,1.68.08,2.48v2.85c-.1,3.8.15,7.57.75,11.32.6,3.75.85,7.53.75,11.33.2.9.35,1.75.45,2.55.1.7.17,1.4.22,2.1.05.7.02,1.3-.07,1.8.2.3.27.55.22.75-.05.2-.03.45.08.75.2.8.4,1.67.6,2.62.2.95.35,1.62.45,2.03-.2.3-.58.9-1.12,1.8-.55.9-1.03,1.35-1.42,1.35-.3,0-.67-.03-1.12-.08-.45-.05-.93-.13-1.42-.22-.5-.1-1.05-.25-1.65-.45l-1.8-3.75c0-.5.05-1.05.15-1.65,0-.5.02-1.08.08-1.73.05-.65.08-1.33.08-2.02.1-1.1.12-2.08.08-2.93-.05-.85-.18-1.38-.38-1.57-.2-.3-.4-.93-.6-1.88-.2-.95-.38-2.03-.52-3.23-.15-1.2-.28-2.45-.38-3.75-.1-1.3-.1-2.5,0-3.6.2-2.6.15-4.5-.15-5.7-.3-1.2-.35-2.2-.15-3-.1-.4-.15-.88-.15-1.43s-.05-1.07-.15-1.57c-.1-.5-.2-1.05-.3-1.65l2.25-3.3c-.5-.2-.95-.45-1.35-.75-.9-.5-1.35-1.1-1.35-1.8,0-.2.12-.53.38-.97.25-.45.5-.92.75-1.43.25-.5.5-.95.75-1.35.25-.4.42-.7.53-.9l-1.65-.75,1.05-8.1c.1-1,.12-2.3.07-3.9-.05-1.6-.03-2.95.08-4.05-.3-.7-.55-1.45-.75-2.25-.2-.7-.35-1.4-.45-2.1-.1-.7-.1-1.35,0-1.95,0-.4.02-.9.08-1.5.05-.6.12-1.15.23-1.65l.45-3.9-1.2-1.2c-.6-.7-1.05-1.73-1.35-3.08s-.35-2.62-.15-3.82c.2-1,.6-1.75,1.2-2.25.6-.5,1.45-.45,2.55.15l.6.6c.1-.2.32-.72.67-1.58.35-.85.42-1.52.23-2.02-.2-.2-.3-.6-.3-1.2s.05-1.25.15-1.95c.1-.7.25-1.5.45-2.4l.3-.75c.3-1.5.27-2.87-.08-4.12-.35-1.25-.22-2.47.38-3.67,0-.2.05-.55.15-1.05.1-.5.25-1,.45-1.5l.6-1.8.45-5.1c-.3-1.7,0-2.8.9-3.3.7-.4,1.8-.35,3.3.15,4.3-.3,8.7-.45,13.2-.45l3.6,1.5,2.85.45,6.9,1.2,2.85,3.15c1.5,1.1,2.9,2.2,4.2,3.3,1.3,1.1,2.5,2.2,3.6,3.3l3.15,3,1.2,1.5-.45,1.8c.2,1.1.35,2.18.45,3.23.1,1.05.15,2.13.15,3.23l.45,1.35.3.45c.2,1,.1,1.75-.3,2.25l-1.35,1.2-1.05.15c-.4.8-.88,1.55-1.43,2.25-.55.7-1.27,1.35-2.17,1.95l-.75.45-3.45,3.15c-1.2.9-2.45,1.85-3.75,2.85-1.3,1-2.65,1.9-4.05,2.7l-1.35.3c-.8.3-1.45.58-1.95.83-.5.25-.95.52-1.35.82l-.45.15-1.5,2.25-2.1.3-4.95,1.35,2.7,3.3,5.7,5.85-.75,1.5c.3.2,1.05.55,2.25,1.05,1.2.5,2,.95,2.4,1.35.3.4.25,1.1-.15,2.1l-.6,1.5,3.9,1.2.75,1.5c.5,1.1,1,1.95,1.5,2.55.6.6,1.15,1.48,1.65,2.63.5,1.15,1.65,2.62,3.45,4.42.7.8,1.42,1.75,2.17,2.85.75,1.1,1.4,2.2,1.95,3.3.55,1.1,1.02,2.08,1.42,2.93.4.85.6,1.48.6,1.88.2.8,1.05,2.1,2.55,3.9.4.5.82.98,1.27,1.42.45.45.83.88,1.12,1.28.4.4.75.85,1.05,1.35l.9,4.05c-.3.5-.65.95-1.05,1.35-.7.9-1.3,1.5-1.8,1.8-.3.2-.95.12-1.95-.23-1-.35-1.65-.62-1.95-.82-.2-.3-.53-.9-.97-1.8-.45-.9-.78-1.75-.98-2.55-.2-.2-.35-.4-.45-.6-.1-.2-.2-.45-.3-.75-.4-.3-.78-.75-1.12-1.35-.35-.6-.73-1.2-1.12-1.8-.4-.7-.8-1.5-1.2-2.4-2.3-2.9-4.38-6.05-6.22-9.45-1.85-3.4-3.93-6.55-6.22-9.45-.7-.7-1.3-1.45-1.8-2.25-.5-.6-.95-1.28-1.35-2.03-.4-.75-.7-1.42-.9-2.02-.4-.4-.7-.65-.9-.75-.2-.1-.35-.2-.45-.3h-.45l-2.7-3.15-5.1-4.95c-.3-.7-.65-1.35-1.05-1.95-.7-1.2-1.35-2.1-1.95-2.7-.5-.4-.7-.98-.6-1.73.1-.75.15-1.22.15-1.42-1.9-.2-3.45-.7-4.65-1.5l-2.55-2.55-.6,1.95ZM140.06,14.81c-3.5-.1-7.4,1.25-11.7,4.05l-.45,3.3-.45,5.55.15,1.65c.3,2,.2,3.35-.3,4.05l-1.65,1.2,1.65,4.65c-.2,1.1-.33,1.83-.38,2.17-.05.35-.13.63-.22.83,0,.2-.03.35-.08.45-.05.1-.18.45-.38,1.05l-.45,1.05c.2.5.45,1.18.75,2.03.3.85.7,1.68,1.2,2.47l.6.45c.5.6.95,1.08,1.35,1.42.4.35.7.68.9.98.6-.1,1.15-.15,1.65-.15h1.35c.4,0,.75.05,1.05.15.5.2,1.02.08,1.57-.38.55-.45,1.07-.92,1.58-1.42l2.55-1.2c1.1-.6,2.33-1.27,3.68-2.02,1.35-.75,3.38-1.52,6.07-2.33,1-.8,2-1.57,3-2.32,1-.75,1.75-1.52,2.25-2.33.4-.1,1.15-.62,2.25-1.57,1.1-.95,1.8-1.62,2.1-2.03l.75-.6c0-.4.1-.85.3-1.35.2-.5.42-.98.67-1.43.25-.45.45-.87.6-1.27.15-.4.17-.75.07-1.05-.1-.5-.28-1.07-.52-1.73-.25-.65-.53-1.22-.83-1.73l-3-2.85-5.25-4.65-3.75-1.8-2.25-1.35-3.3-1.05-3.15-.9Z"/>
  <path class="cls-1" d="M275.06,10.61c2.3,1.7,4.2,3.78,5.7,6.23,1.5,2.45,2.65,5.77,3.45,9.97.5.9.9,2.33,1.2,4.28.3,1.95.6,4.08.9,6.38l.6,3.15v.75c.5.8.88,1.6,1.12,2.4.25.8.57,1.6.98,2.4l.6,1.35.6,1.65c.4.4.9,1.43,1.5,3.08.6,1.65,1.05,3.18,1.35,4.57.2.8.3,1.45.3,1.95v.75c.4,1.6.75,3.43,1.05,5.48.3,2.05.35,3.78.15,5.17,0,.5-.15,1.05-.45,1.65.5.9.67,2.45.53,4.65-.15,2.2-.48,4.7-.98,7.5-.2,1.3-.45,2.65-.75,4.05-.3,1.4-.65,2.8-1.05,4.2v1.8c0,.6-.05,1.25-.15,1.95,0,.1-.03.18-.08.22-.05.05-.08.13-.08.23-.6,2.8-1.23,5.23-1.88,7.27-.65,2.05-1.35,3.85-2.1,5.4-.75,1.55-1.5,2.95-2.25,4.2-.75,1.25-1.58,2.48-2.48,3.67-1.8,1.8-3.4,3.42-4.8,4.88-1.4,1.45-2.83,2.65-4.28,3.6-1.45.95-3.03,1.67-4.72,2.18-1.7.5-3.8.75-6.3.75-2,0-3.95-.15-5.85-.45-1.4-.2-2.95-.58-4.65-1.12-1.7-.55-3.05-1.12-4.05-1.73l-2.1-1.8c-.9-.8-1.88-1.75-2.92-2.85-1.05-1.1-1.98-2.2-2.78-3.3-.5-.6-1.23-1.53-2.17-2.78-.95-1.25-1.58-2.32-1.88-3.22l-.75-1.05-.6-.3c-.8-3.6-1.23-7.15-1.28-10.65-.05-3.5.08-7.6.38-12.3l.45-1.5c0-.8-.15-1.5-.45-2.1,0-.5-.03-.8-.08-.9-.05-.1-.07-.25-.07-.45-.2-1.8-.45-4.05-.75-6.75-.3-2.7-.45-5.25-.45-7.65,0-2.8.1-5.3.3-7.5.2-2.2.65-3.7,1.35-4.5-.2-.4-.3-.95-.3-1.65,0-1.4.32-3.1.98-5.1.65-2,1.32-3.75,2.02-5.25,0-.3.02-.57.08-.83.05-.25.12-.52.22-.83l.45-.9c.5-1.4,1.17-2.87,2.03-4.42.85-1.55,1.52-2.52,2.02-2.93l.75-1.35.9-1.35c.5-.7.97-1.47,1.42-2.33.45-.85,1.02-1.67,1.73-2.48.3-.5.7-1.32,1.2-2.47.5-1.15,1.02-2.35,1.58-3.6.55-1.25,1.02-2.37,1.42-3.38.4-1,.7-1.6.9-1.8.7-.6,1.32-1.25,1.88-1.95.55-.7,1.12-1.32,1.72-1.88.6-.55,1.28-1,2.03-1.35.75-.35,1.72-.52,2.92-.52,2.5,0,4.75.05,6.75.15,2,.1,3.9.3,5.7.6l1.5.3.75.45ZM240.41,83.36c-.2,2.1-.35,4.05-.45,5.85-.1,1.8-.13,3.55-.08,5.25.05,1.7.17,3.48.38,5.33.2,1.85.5,3.98.9,6.38,1.1,2,2.33,3.98,3.68,5.92,1.35,1.95,2.77,3.7,4.27,5.25,1.5,1.55,3.08,2.82,4.73,3.83,1.65,1,3.27,1.5,4.88,1.5,2.9,0,5.75-.9,8.55-2.7,2.8-1.8,5.8-4.3,9-7.5,1.6-2.5,3.05-5.15,4.35-7.95,1.3-2.8,2.3-6.1,3-9.9v-.45c0-1,.12-1.95.38-2.85.25-.9.47-1.65.67-2.25-.1-.5-.15-1.07-.15-1.72v-1.28c.2-.6.55-1.1,1.05-1.5l1.5-12.15c-.2-1.7-.48-3.85-.83-6.45-.35-2.6-.78-5.05-1.27-7.35-.8-1.3-1.48-2.72-2.03-4.27-.55-1.55-.93-2.97-1.12-4.28l-.15-3.6c-.5-2.8-.85-5-1.05-6.6-.2-1.6-.15-3.1.15-4.5-.8-.8-1.35-1.52-1.65-2.18-.3-.65-.55-1.37-.75-2.17-.1-.3-.28-.9-.52-1.8-.25-.9-.58-1.88-.98-2.93-.4-1.05-.83-2.15-1.27-3.3-.45-1.15-.88-2.18-1.28-3.08l-.9-1.2-1.05-1.5c-.5-.7-1-1.35-1.5-1.95l-1.35-.3c-.9.4-1.95.75-3.15,1.05s-2.2.55-3,.75c-1.3-.1-2.43.18-3.38.83-.95.65-1.88,1.42-2.77,2.32-1.2,1.1-2.25,2.75-3.15,4.95-.9,2.2-1.75,4.05-2.55,5.55l-.6,4.05-2.1,1.5c-.4,1.3-1,2.68-1.8,4.12-.8,1.45-1.7,2.73-2.7,3.82-.8,2.2-1.6,4.55-2.4,7.05-.8,2.5-1.45,4.6-1.95,6.3,0,.8-.03,1.9-.08,3.3-.05,1.4-.1,2.88-.15,4.43-.05,1.55-.1,3.07-.15,4.57-.05,1.5-.08,2.85-.08,4.05v3.15c0,.9.05,1.55.15,1.95l.75,4.65Z"/>
  <path class="cls-1" d="M364.01,106.16l.3.3c.2.7.45,1.25.75,1.65.2.5.4.9.6,1.2.2.3.3.55.3.75-.2.8-.3,1.15-.3,1.05v.15l.75.75c.2.2.45.42.75.67.3.25.55.47.75.68.3.5.7.9,1.2,1.2l.9.6c.4.1.75.25,1.05.45.6.4.95.8,1.05,1.2,0,.2.08.57.23,1.12.15.55.27.92.38,1.12l7.5.3.45.15.15-1.2,2.1-.45,4.5-1.8c.1-.2.22-.58.38-1.12.15-.55.22-.93.22-1.12s.12-.4.38-.6c.25-.2.47-.4.67-.6.3-.2.65-.35,1.05-.45.3-.1.6-.3.9-.6.2-.2.4-.4.6-.6s.4-.4.6-.6c.2-.2.45-.42.75-.68.3-.25.55-.47.75-.67l.75-.75v-.15c0,.1-.1-.25-.3-1.05,0-.3.25-.95.75-1.95.3-.4.6-.95.9-1.65.2-.4.45-.8.75-1.2.2-.3.38-.65.53-1.05.15-.4.27-.7.38-.9,0-.2.02-.38.08-.52.05-.15.07-.32.07-.52v-.45l.45-3.6c.1-.4.25-.8.45-1.2.2-.4.35-.8.45-1.2.1-.4.25-.85.45-1.35.2-.4.5-.75.9-1.05v-6.15c0-.3.1-.85.3-1.65.1-.4.25-.8.45-1.2l1.95-2.55c-.2-.4-.48-.9-.83-1.5-.35-.6-.63-1.1-.83-1.5.1-.5.15-1,.15-1.5,0-1-.15-2.1-.45-3.3-.2-.7-.22-1.5-.08-2.4.15-.9.32-1.75.53-2.55.2-1,.45-1.95.75-2.85l.45-6,1.05-9.3c.2-.8.3-1.55.3-2.25v-1.2l-.3-2.55c-.6-1.9-.6-3.1,0-3.6.2-.8.25-1.65.15-2.55,0-.2-.03-.4-.08-.6-.05-.2-.08-.45-.08-.75v-1.95l2.25-.9-2.25-4.65v-5.55c0-.8-.08-1.45-.22-1.95-.15-.5-.33-1-.53-1.5-.3-.9-.55-1.8-.75-2.7-.2-.3-.35-.55-.45-.75-.1-.2-.2-.4-.3-.6-.1-.2-.2-.35-.3-.45l1.95-4.35,6.15,1.95v5.25l1.65,6.3c.1.5.2,1,.3,1.5.1.5.15,1,.15,1.5v19.65c-.1.4-.15.78-.15,1.12v1.73l-1.65,3.3v1.35c.2.5.32,1.03.38,1.58.05.55.23,1.03.53,1.42l.15,3.75-1.95,4.65-2.1,2.25,1.2,1.8,2.1,5.25c-.2.8-.35,1.55-.45,2.25-.1.7-.13,1.4-.08,2.1.05.7.22,1.3.53,1.8.2.6.22,1.27.07,2.02-.15.75-.38,1.53-.67,2.32-.4.9-.85,1.75-1.35,2.55l-.9,1.5c0,.2-.1.4-.3.6-.2.8-.3,1.3-.3,1.5v3.3c-.2,2.3-.5,4.4-.9,6.3-.3.3-.7.83-1.2,1.58-.5.75-.8,1.38-.9,1.88-.2.8-.45,1.4-.75,1.8l-.6,1.2c-.2.1-.35.2-.45.3s-.25.2-.45.3l-.45.45v2.25c-.2.2-.3.8-.3,1.8,0,1.1-.1,2.27-.3,3.52-.2,1.25-.7,2.07-1.5,2.48-.6.2-1,.35-1.2.45-.2.1-.4.15-.6.15l-3.3,5.25-3-1.05c-.5.7-.9,1.22-1.2,1.58-.3.35-.58.7-.82,1.05-.25.35-.43.57-.53.68-.3.2-.7.42-1.2.67-.5.25-1,.47-1.5.67-.5.3-1.05.55-1.65.75l-3.45-.3v1.2l-2.25.6h-2.55c-.7,0-1.35-.05-1.95-.15-.6-.1-1.05-.25-1.35-.45-.1-.1-.28-.33-.52-.68-.25-.35-.53-.7-.83-1.05-.3-.35-.7-.88-1.2-1.58l-3,1.05-3.3-5.25c-.2,0-.4-.05-.6-.15-.2-.1-.4-.18-.6-.22-.2-.05-.4-.13-.6-.22-.8-.4-1.3-1.23-1.5-2.48-.2-1.25-.3-2.43-.3-3.52,0-.5-.3-.98-.9-1.43-.6-.45-1-.93-1.2-1.42-.8-2.8-1.4-5.55-1.8-8.25l-1.35-6.75c0-.1-.03-.17-.08-.23-.05-.05-.08-.12-.08-.22-.2-1.7-.2-3.3,0-4.8.2-1.5.7-3.2,1.5-5.1.5-1,1.45-1.6,2.85-1.8,1.4-.2,2.35.4,2.85,1.8v1.28c0,.65-.05,1.23-.15,1.72.2.6.42,1.35.67,2.25.25.9.38,1.85.38,2.85,0,1.9.17,3.83.53,5.77.35,1.95.83,3.93,1.42,5.93l-.3.3Z"/>
  <path class="cls-1" d="M480.71,122.21c-.5-.4-.9-1.25-1.2-2.55-.3-1.6-.45-4-.45-7.2h1.2l1.5-.45c-.1-.6-.15-1.6-.15-3v-4.65c0-1.7.05-3.38.15-5.03.1-1.65.15-3.02.15-4.12,0-.3.17-1.17.52-2.62.35-1.45.7-3.02,1.05-4.72.35-1.7.7-3.27,1.05-4.72.35-1.45.52-2.33.52-2.63.2-1,.3-2.07.3-3.23s.05-2.17.15-3.07c0-1.1.05-2.15.15-3.15l-.45.15-2.85-1.8c-1.4-.5-2.65-1.17-3.75-2.02-1.1-.85-1.95-2.27-2.55-4.27.1-1,.2-1.95.3-2.85.1-.8.2-1.52.3-2.17.1-.65.25-1.07.45-1.28l1.2-1.2.83-.83c.35-.35.77-.52,1.28-.52.5.5,1.75,1.25,3.75,2.25-.2-1.4-.33-2.95-.38-4.65-.05-1.7-.13-3.45-.23-5.25-.2-3.3-.33-6.42-.38-9.38-.05-2.95-.08-4.92-.08-5.93v-7.2c-1.2-.5-2.3-1.15-3.3-1.95-1-.8-1.75-2.15-2.25-4.05.1-1,.2-1.95.3-2.85.1-.8.2-1.52.3-2.17.1-.65.25-1.07.45-1.28l1.2-1.2.83-.83c.35-.35.77-.52,1.28-.52.3.3.87.7,1.72,1.2.85.5,1.85,1,3,1.5,1.15.5,2.27.93,3.38,1.27,1.1.35,2,.52,2.7.52l1.5.3,1.2.15,11.1-1.65c.7.1,1.45.3,2.25.6.8.3,1.55.5,2.25.6l8.1-1.35.75.75c.3.3.75.85,1.35,1.65l5.4-.45,2.85-1.8,3,2.1,5.1-1.95,4.95.9c.2.8.45,1.5.75,2.1.3.6.5,1.2.6,1.8.2.9.1,1.7-.3,2.4-.2.2-.48.4-.83.6-.35.2-.97.4-1.88.6h-7.88c-1.35,0-2.32.05-2.92.15-.6-.2-1.83-.17-3.67.08-1.85.25-3.43.52-4.72.82-1,.2-2.15.43-3.45.68-1.3.25-2.05.22-2.25-.08-.2-.1-.55-.17-1.05-.23-.5-.05-1.03-.1-1.58-.15-.55-.05-1.08-.1-1.58-.15-.5-.05-.8-.08-.9-.08l-2.55.3c-1.2.5-2.25.9-3.15,1.2-.9.3-1.65.55-2.25.75-.7.3-1.3.5-1.8.6l-6-.45-1.35-.15-4.05,1.05c0,.1-.03.18-.08.22-.05.05-.08.13-.08.23-.3.6-.45,1.1-.45,1.5,0,.2.1,1.3.3,3.3.2,2,.4,4.3.6,6.9.1,2.1.2,4.25.3,6.45.1,2.2.15,4.2.15,6v6.15l1.05,3.45c.3,0,.7.03,1.2.08.5.05.95.07,1.35.07l4.65.9c.2,0,.7-.02,1.5-.08.8-.05,1.8-.08,3-.08,1.3,0,3.05.05,5.25.15,2.2.1,4.6.25,7.2.45h3.75l8.7-.3c-.4,1.7-.8,3.25-1.2,4.65-.3,1.2-.58,2.3-.83,3.3-.25,1-.38,1.55-.38,1.65,0,.5-.23.95-.67,1.35-.45.4-1.33.6-2.62.6l-2.25-.75-2.85-.45-9.3-.45h-8.4c.1,0-.05-.05-.45-.15-.4-.1-.9-.25-1.5-.45l-2.4-.6h-2.85c.2,1.7.47,3.8.82,6.3.35,2.5.42,4.95.23,7.35-.9,4.2-1.63,8.53-2.17,12.97-.55,4.45-.88,9.03-.98,13.73l6.75-1.8c.7,0,1.73-.12,3.08-.38,1.35-.25,2.37-.38,3.08-.38l7.95-1.95c.2.1.45.2.75.3.6.4,1.1.8,1.5,1.2l5.4-.9,2.7-1.2,3.15,1.8,4.95-2.25,4.95.45c.3.8.7,1.48,1.2,2.03.5.55.9,1.12,1.2,1.72.3.8.25,1.6-.15,2.4l-.75.75c-.3.3-.9.55-1.8.75l-5.1.3-6.45.6c-.6-.1-1.83.02-3.67.38-1.85.35-3.38.77-4.58,1.28-1,.3-2,.52-3,.67-1,.15-1.9.28-2.7.38-.6-.1-1.55-.15-2.85-.15s-2.05-.05-2.25-.15l-2.55.6c-1.1.5-2.38.95-3.82,1.35-1.45.4-2.78.75-3.98,1.05-1.5.4-2.95.75-4.35,1.05-.7.2-1.38.47-2.03.83-.65.35-1.38.62-2.17.82-.8.3-1.55.55-2.25.75-.7.2-1.3.2-1.8,0Z"/>
  <path class="cls-1" d="M611.81,63.26l1.5,8.4c.2.5.1,1.05-.3,1.65-.2.4-.4.7-.6.9-.1.2-.2.45-.3.75-.2.5-.35,1.1-.45,1.8-.2.8-.38,1.4-.52,1.8-.15.4-.23.7-.23.9-.1.3-.1.45,0,.45l.9.75c.1.2.17.48.22.83.05.35.12.78.23,1.28.1.5.15,1.1.15,1.8v2.7c0,.4.1.7.3.9,0,.2.1.5.3.9.1.2.2.35.3.45l1.65,3.15.6,3c.6.2.95.35,1.05.45.5.2.75.7.75,1.5v1.35c-.1,1-.1,1.9,0,2.7.1.7.23,1.4.38,2.1.15.7.42,1.2.83,1.5.1.1.22.13.38.07.15-.05.27-.07.38-.07.2.2.47.4.83.6.35.2.62.4.83.6.3.3.6.55.9.75l.45,2.55,4.2,2.7-.3,1.8c.2.1.5.35.9.75l2.85.75-.3,2.1,1.65.3v.45c.2.1.45.27.75.53.3.25.6.47.9.67.1.1.25.15.45.15s.38.02.53.08c.15.05.38.08.67.08l1.65.9,1.95-.15,9.45-3.45,4.95-3.3,1.05-.6,1.8-.9,3.3.45c0-.2.02-.58.08-1.12.05-.55.02-.92-.08-1.12,0-.4.3-.9.9-1.5.3-.3.6-.5.9-.6.2-.2.4-.45.6-.75.4-.6.75-1.05,1.05-1.35.5-.7.87-1.2,1.12-1.5.25-.3.42-.55.52-.75l.15-.3-.15-.15c-.2-.2-.35-.55-.45-1.05-.1-.2-.05-.45.15-.75.2-.3.4-.65.6-1.05.3-.4.6-.85.9-1.35.1-.2.2-.5.3-.9.1-.2.17-.45.23-.75.05-.3.12-.55.22-.75v-1.65l.75-.6c0-.2.05-.5.15-.9.1-.3.15-.65.15-1.05s.05-.85.15-1.35c0-.4.3-.9.9-1.5l.9-.9c0-.1-.03-.25-.08-.45-.05-.2-.03-.65.08-1.35l.45-1.2,2.25-2.25,2.25,2.1v.6c0,.2-.1.5-.3.9-.1.8-.15,1.8-.15,3v2.1c-.7.9-.85,2-.45,3.3v.6c0,.2-.03.38-.08.53-.05.15-.07.33-.07.53-.1.3-.18.62-.23.97-.05.35-.18.67-.38.97l-.45,1.35c-.5.3-.8.6-.9.9-.1.2-.15.35-.15.45v.6c0,.7.15,1.25.45,1.65v.6c0,.3.05.7.15,1.2.2,1,.35,2.15.45,3.45.1,1.3-.2,2.2-.9,2.7-.2.2-.38.35-.53.45-.15.1-.33.2-.52.3l-.6.3-2.1,5.85-3.15-.45c-.4.7-.7,1.28-.9,1.73-.2.45-.38.87-.53,1.27-.15.4-.28.65-.38.75-.5.5-1.1.85-1.8,1.05-.4.1-.7.15-.9.15l-2.85-.15c0,.1-.1.2-.3.3-.2.1-.35.15-.45.15l-.9.6c-.5.3-1,.55-1.5.75-.1-.1-.2-.15-.3-.15-.2,0-.35-.05-.45-.15-.5.2-1.35.55-2.55,1.05-1.2.5-2.35.95-3.45,1.35-.2.1-.7.25-1.5.45-.4.1-.75.2-1.05.3l-2.7-.75h-.3c-.5,0-1-.05-1.5-.15-.6-.1-1.3-.05-2.1.15l-1.2.3c-1-.2-1.83-.52-2.48-.97-.65-.45-1.38-1.23-2.17-2.32-.1,0-.3-.05-.6-.15-.2-.1-1.2-.3-3-.6l-1.35-.45-2.25-2.7c-.9-.7-1.95-1.4-3.15-2.1l-.9-1.5c-.2-.4-.4-.8-.6-1.2-.2-.4-.4-.7-.6-.9-.4-.6-.6-1.35-.6-2.25-.1-.5-.1-1.05,0-1.65-.1,0-.43-.23-.97-.68-.55-.45-1.73-1.47-3.53-3.07-.8-1.2-1.45-2.3-1.95-3.3l-.75-.15c-.1-.1-.15-.25-.15-.45-.1-.2-.15-.55-.15-1.05-.2-.7-.5-1.62-.9-2.77-.4-1.15-.6-1.82-.6-2.02.3-1-.05-2.1-1.05-3.3-.3-.9-.6-1.75-.9-2.55-.5-1.5-1-2.5-1.5-3-.4-.4-.5-1.05-.3-1.95l-.3-1.35c.4-.4.6-.75.6-1.05v-.45c0-.1-.05-.3-.15-.6-.1-.2-.23-.42-.38-.68-.15-.25-.38-.47-.68-.67.1-.1.08-.3-.07-.6-.15-.3-.33-.65-.53-1.05-.6-.9-1.18-1.95-1.72-3.15-.55-1.2-.58-2.2-.08-3,.1-.2.35-.5.75-.9.2-.2.35-.4.45-.6v-4.2c-.1,0-.2-.05-.3-.15-.1,0-.15-.05-.15-.15-.4-1-.6-1.92-.6-2.77s.25-1.88.75-3.08c0-.1-.05-.3-.15-.6-.1-.2-.25-.52-.45-.98-.2-.45-.4-1.07-.6-1.88l-.45-1.35,1.05-3.3v-3.75c.2-.6.45-1.1.75-1.5.6-.9.95-1.65,1.05-2.25.2-.5.7-1.1,1.5-1.8.4-.4.85-.7,1.35-.9,0-.1.02-.47.07-1.12.05-.65.27-2.22.68-4.73.6-1.3,1.12-2.37,1.57-3.23.45-.85.88-1.55,1.28-2.1.4-.55.83-1.02,1.28-1.42.45-.4.97-.85,1.57-1.35l1.8-1.35.3-1.95,2.1-2.85,1.2-1.8,2.25-2.7,6.45-5.7h1.95l.6-2.55,1.95-1.65h2.85l5.4,1.05.15-.75,3.6.6,4.8-2.55,2.7,1.5,5.4,1.35,1.5,1.8c1-.2,2.18.2,3.53,1.2,1.35,1,2.27,1.85,2.78,2.55l4.05,1.95c4,4.1,6.3,7.45,6.9,10.05.2.3.42.65.68,1.05.25.4.52.75.82,1.05.3.3.65.93,1.05,1.88.4.95.65,1.78.75,2.48.2.3.4.88.6,1.73.2.85.35,1.73.45,2.62.1.9.15,1.73.15,2.48s-.05,1.18-.15,1.27c-.5.5-.95.8-1.35.9-.3.1-.55.2-.75.3l-3.45-.9c-.8-.3-1.45-.9-1.95-1.8-.5-.9-.95-1.85-1.35-2.85-.4-1-.73-1.95-.97-2.85-.25-.9-.43-1.55-.53-1.95-.8-.7-1.45-1.5-1.95-2.4-.5-.9-.8-1.8-.9-2.7l-3.15-1.65-6.3-6c-.8.8-1.7,1.35-2.7,1.65-1,.3-1.65.35-1.95.15.2.1.02-.07-.53-.52-.55-.45-1.08-.77-1.58-.98-.3-.2-.65-.42-1.05-.67-.4-.25-.7-.52-.9-.83l-4.5.6-3.15-.45-3,2.25-.3-.6-3.3,1.35-.75-.15-8.25,1.5,1.05,2.85-4.95,1.8-.75,2.4c.1.2.27.63.52,1.27.25.65.38,1.03.38,1.12.1.5-.2,1-.9,1.5-.4.3-.8.55-1.2.75-.9.5-1.65,1-2.25,1.5-.5.5-1,1-1.5,1.5-.5.5-.75,1-.75,1.5,0,.4.1.6.3.6v1.05c0,.4-.05.8-.15,1.2-.1.4-.15.8-.15,1.2l-1.8,1.5v5.1l-1.5.6c0,.2-.05.4-.15.6-.1.2-.1.4,0,.6l.9,2.85-1.95.75.75,1.65-.45.15c0,.3-.03.65-.08,1.05-.05.4-.07.75-.07,1.05,0,.1.05.25.15.45.1.2.17.4.23.6.05.2.17.4.38.6v.9l-.15.15Z"/>
  <path class="cls-1" d="M735.11,21.26c1,.1,2.4.05,4.2-.15,1.8-.2,3.67-.42,5.62-.68,1.95-.25,3.8-.52,5.55-.82,1.75-.3,3.08-.55,3.98-.75l1.65-.3,4.05-.45c.1,0,.17-.02.23-.08.05-.05.12-.07.22-.07l5.7-1.35h1.2c.3,0,.55-.05.75-.15l-.45-1.5c-.3-.9-.55-1.8-.75-2.7-.2-.3-.35-.55-.45-.75-.1-.2-.2-.4-.3-.6-.1-.2-.2-.35-.3-.45l1.95-4.35,6.15,1.95v5.25l.6,2.4h5.1l13.65.3-.3,2.1c-.1.5-.33,1.3-.67,2.4-.35,1.1-.78,1.8-1.27,2.1l-9.9,1.5c-.7.1-1.5.13-2.4.07-.9-.05-1.8-.07-2.7-.07v24.15c-.2.8-.2,1.45,0,1.95,0,.4.05.7.15.9l-2.1,2.4h1.05c.1.9.15,1.95.15,3.15s-.15,2.2-.45,3c-.3.6-.53,1.18-.67,1.73-.15.55-.28,1.08-.38,1.58-.1.5-.15,1-.15,1.5-.2.3-.45.73-.75,1.27-.3.55-.55.98-.75,1.27l.9,2.85c0,.5.05.95.15,1.35,0,.4.02.73.08.97.05.25.08.48.08.68l-1.35,7.05-.3,12.3-.45,2.25c.1.4.12.85.08,1.35-.05.5-.13.95-.22,1.35-.1.5-.18.9-.23,1.2-.05.3.02.7.23,1.2.3.8.47,1.63.52,2.48.05.85.08,1.58.08,2.17-.1.5-.1.9,0,1.2-.1.5-.13,1.03-.08,1.58.05.55.12,1.08.23,1.57.1.5.2,1.05.3,1.65l-1.05,1.2c.2.4.35.8.45,1.2.2,1-.05,1.9-.75,2.7-.4,1.1-.6,2.2-.6,3.3v1.5l-2.4-.9c-.7-.2-1.35-.45-1.95-.75-.6-.3-1-.55-1.2-.75l.3-10.35c.1-.5.2-1.05.3-1.65.1-.5.12-1.05.08-1.65-.05-.6-.13-1.15-.22-1.65-.2-1.2-.38-2.37-.53-3.52-.15-1.15-.18-2.07-.08-2.78l.6-13.2c.2-.6.35-1.2.45-1.8.1-.6.2-1.15.3-1.65l.45-1.95c0-.7-.15-1.45-.45-2.25-.2-.4-.35-.9-.45-1.5-.4-1-.7-1.95-.9-2.85-.2-.8-.33-1.6-.38-2.4-.05-.8.12-1.45.53-1.95.3-1.2.55-2.45.75-3.75.1-.7.2-1.45.3-2.25.4-1.7.8-3.38,1.2-5.02.4-1.65.9-3.17,1.5-4.57.2-.3.3-.65.3-1.05v-2.4l-.3-2.55c-.6-1.9-.6-3.1,0-3.6v.15c.2-.6.3-1.07.3-1.42s-.05-.77-.15-1.28c0-.2-.03-.4-.08-.6-.05-.2-.08-.45-.08-.75v-6.45l2.25-.9-2.25-4.65v-.75c-.2,0-.33-.02-.38-.08-.05-.05-.13-.08-.22-.08l-4.95,1.05-2.25.15h-2.85c-.4,0-.95.08-1.65.23-.7.15-1.42.3-2.17.45-.75.15-1.45.28-2.1.38-.65.1-1.08.15-1.27.15-1-.2-2.28-.27-3.83-.23-1.55.05-3.03.07-4.42.07l-1.5.15-7.35,1.2,1.5-6.9Z"/>
  <path class="cls-1" d="M898.01,92.66v-1.5c0-.8-.38-1.7-1.12-2.7-.75-1-1.27-1.9-1.58-2.7-2.5-1.8-4.5-3.25-6-4.35-1.5-1.1-2.88-2.1-4.12-3-1.25-.9-1.88-1.4-1.88-1.5l-2.25-.6c-1.2-.4-1.85-1.05-1.95-1.95l-1.35-1.8c-.5-.1-1.03-.35-1.58-.75-.55-.4-1.03-.9-1.42-1.5-.2-.2-.58-.65-1.12-1.35-.55-.7-1.15-1.43-1.8-2.18-.65-.75-1.2-1.5-1.65-2.25-.45-.75-.62-1.32-.52-1.73l-4.2-1.05-3.45-1.65c-.1-.4-.15-.8-.15-1.2-.1-.5-.15-1.45-.15-2.85-.5-1.1-1.1-2.02-1.8-2.77-.7-.75-1.15-1.67-1.35-2.77-.5-1.2-1.05-2.48-1.65-3.83-.6-1.35-.9-2.72-.9-4.12,0-.2.17-.7.53-1.5.35-.8.7-1.67,1.05-2.62.35-.95.7-1.82,1.05-2.62.35-.8.53-1.3.53-1.5v-.6c.2-.3.42-.72.67-1.28.25-.55.57-1.07.97-1.57.4-.6.85-1.3,1.35-2.1l.6-1.35.45-1.8c.1-.6.47-1.25,1.12-1.95.65-.7,1.02-1.3,1.12-1.8v-1.2c0-.7.1-1.35.3-1.95.4-.6,1.35-1.35,2.85-2.25,1.5-.9,2.6-1.5,3.3-1.8l.15-.45,2.85-3,3.9-1.8c.3,0,.6.03.9.08.3.05.55.07.75.07.6,0,1.2-.02,1.8-.07.6-.05,1.15-.08,1.65-.08h4.35c.1.1.4.15.9.15h1.5c.6,0,1.3.05,2.1.15l11.25,2.25c.6.2,1.12.48,1.58.82.45.35.77.73.97,1.12,1.1,2.7,1.45,4.65,1.05,5.85-.5,1.4-2.1,1.75-4.8,1.05-.8-.4-1.55-.95-2.25-1.65-.7-.7-1.45-1.15-2.25-1.35-.4-.2-1-.38-1.8-.52-.8-.15-1.63-.25-2.47-.3-.85-.05-1.63-.1-2.33-.15-.7-.05-1.15-.08-1.35-.08s-.45.03-.75.08c-.3.05-.7.07-1.2.07-1.1,0-1.93-.02-2.48-.07-.55-.05-.88-.08-.97-.08-.4,0-.85.33-1.35.98-.5.65-.95,1.08-1.35,1.27l-1.8.75c-.2.2-.45.43-.75.67-.3.25-.55.38-.75.38l-3,2.7c-.2.2-.5.45-.9.75-.4.3-.8.65-1.2,1.05-.4.4-.9.85-1.5,1.35l-1.5,1.5c-.2.2-.4.35-.6.45-.2.2-.38.33-.52.38-.15.05-.28.18-.38.38-1.5,1.9-2.65,4-3.45,6.3-.5,1.4-1,2.58-1.5,3.52-.5.95-.9,1.98-1.2,3.08l3.3,9.3c.6,1.7,1.25,2.88,1.95,3.53.7.65,1.3,1.12,1.8,1.42l.6.6c.1.4.38.78.82,1.12.45.35.92.67,1.43.98.6.4,1.25.75,1.95,1.05l6.6,9.75,1.8.6c.5.5,1.45,1,2.85,1.5,1.4.5,2.35.95,2.85,1.35l12.75,10.05c.1.3.3.8.6,1.5.3.7.6,1.48.9,2.32.3.85.6,1.68.9,2.47.3.8.55,1.5.75,2.1.2,1.2.27,2.43.23,3.67-.05,1.25-.18,2.47-.38,3.68-.2,1.7-.53,3.2-.98,4.5-.45,1.3-.93,2.35-1.42,3.15-.3.8-.45,1.65-.45,2.55,0,.2-.1.7-.3,1.5l-.9,2.25-.45.75c-.1.4-.48,1.07-1.12,2.03-.65.95-1.38,1.92-2.17,2.92-.8,1-1.55,1.88-2.25,2.62-.7.75-1.15,1.12-1.35,1.12-.4,0-.7-.05-.9-.15l-2.85.45-1.65,3.6-6-1.95-1.05,1.5-3.15,1.95-2.85,2.4-7.65-1.8-2.7-1.2-.75.3c-1.4-.2-2.73-.33-3.97-.38-1.25-.05-2.33-.33-3.23-.83l-3-3.3c-.5-.5-.9-1.25-1.2-2.25-.3-1-.6-2.05-.9-3.15-.3-1.1-.6-2.13-.9-3.08-.3-.95-.65-1.68-1.05-2.17-.3-.3-.65-.7-1.05-1.2-.4-.5-.8-1.05-1.2-1.65.1-1.5.27-2.78.53-3.83.25-1.05.62-1.77,1.12-2.17.7-.5,1.6-.4,2.7.3,1.1,1.7,1.92,3.53,2.48,5.48.55,1.95,1.47,3.83,2.77,5.62,1.8,2.7,3.85,4.45,6.15,5.25.2.1.42.15.67.15s.57.05.98.15c.4.1.85.15,1.35.15l3.75.9,4.65.9,4.8-4.5,4.65-.45c.1-.3.27-.62.53-.97.25-.35.53-.68.83-.97.3-.4.6-.78.9-1.12.3-.35.4-.48.3-.38.1-.2.22-.45.38-.75.15-.3.42-.55.82-.75.8-.5,1.9-.75,3.3-.75.5-1.3,1.15-2.33,1.95-3.08.8-.75,1.2-1.52,1.2-2.32,0-1.4.38-2.95,1.12-4.65.75-1.7,1.37-2.9,1.88-3.6l.75-5.7Z"/>
</svg>