<?xml version="1.0" encoding="UTF-8"?>
<svg id="Layer_1" data-name="Layer 1" xmlns="http://www.w3.org/2000/svg" viewBox="0 0 628.11 139.94">
  <defs>
    <style>
      .cls-1 {
        stroke: #ff0;
        stroke-miterlimit: 10;
        stroke-width: 10px;
      }
    </style>
  </defs>
  <path class="cls-1" d="M55.65,92.7v-1.5c0-.8-.38-1.7-1.12-2.7-.75-1-1.28-1.9-1.58-2.7-2.5-1.8-4.5-3.25-6-4.35-1.5-1.1-2.88-2.1-4.12-3-1.25-.9-1.88-1.4-1.88-1.5l-2.25-.6c-1.2-.4-1.85-1.05-1.95-1.95l-1.35-1.8c-.5-.1-1.03-.35-1.58-.75-.55-.4-1.03-.9-1.42-1.5-.2-.2-.58-.65-1.12-1.35-.55-.7-1.15-1.43-1.8-2.18-.65-.75-1.2-1.5-1.65-2.25s-.63-1.32-.52-1.73l-4.2-1.05-3.45-1.65c-.1-.4-.15-.8-.15-1.2-.1-.5-.15-1.45-.15-2.85-.5-1.1-1.1-2.02-1.8-2.77-.7-.75-1.15-1.67-1.35-2.77-.5-1.2-1.05-2.48-1.65-3.83-.6-1.35-.9-2.72-.9-4.12,0-.2.17-.7.53-1.5.35-.8.7-1.67,1.05-2.62.35-.95.7-1.82,1.05-2.62.35-.8.53-1.3.53-1.5v-.6c.2-.3.42-.72.67-1.28.25-.55.57-1.07.97-1.57.4-.6.85-1.3,1.35-2.1l.6-1.35.45-1.8c.1-.6.47-1.25,1.12-1.95.65-.7,1.02-1.3,1.12-1.8v-1.2c0-.7.1-1.35.3-1.95.4-.6,1.35-1.35,2.85-2.25,1.5-.9,2.6-1.5,3.3-1.8l.15-.45,2.85-3,3.9-1.8c.3,0,.6.03.9.08.3.05.55.07.75.07.6,0,1.2-.02,1.8-.07.6-.05,1.15-.08,1.65-.08h4.35c.1.1.4.15.9.15h1.5c.6,0,1.3.05,2.1.15l11.25,2.25c.6.2,1.12.48,1.58.82.45.35.77.73.97,1.12,1.1,2.7,1.45,4.65,1.05,5.85-.5,1.4-2.1,1.75-4.8,1.05-.8-.4-1.55-.95-2.25-1.65-.7-.7-1.45-1.15-2.25-1.35-.4-.2-1-.38-1.8-.52-.8-.15-1.63-.25-2.47-.3-.85-.05-1.63-.1-2.33-.15-.7-.05-1.15-.08-1.35-.08s-.45.03-.75.08c-.3.05-.7.07-1.2.07-1.1,0-1.93-.02-2.48-.07-.55-.05-.88-.08-.97-.08-.4,0-.85.33-1.35.98-.5.65-.95,1.08-1.35,1.27l-1.8.75c-.2.2-.45.43-.75.67-.3.25-.55.38-.75.38l-3,2.7c-.2.2-.5.45-.9.75-.4.3-.8.65-1.2,1.05-.4.4-.9.85-1.5,1.35l-1.5,1.5c-.2.2-.4.35-.6.45-.2.2-.38.33-.53.38-.15.05-.28.18-.38.38-1.5,1.9-2.65,4-3.45,6.3-.5,1.4-1,2.58-1.5,3.52-.5.95-.9,1.98-1.2,3.08l3.3,9.3c.6,1.7,1.25,2.88,1.95,3.53.7.65,1.3,1.12,1.8,1.42l.6.6c.1.4.38.78.83,1.12.45.35.92.67,1.42.98.6.4,1.25.75,1.95,1.05l6.6,9.75,1.8.6c.5.5,1.45,1,2.85,1.5,1.4.5,2.35.95,2.85,1.35l12.75,10.05c.1.3.3.8.6,1.5.3.7.6,1.48.9,2.33.3.85.6,1.68.9,2.47.3.8.55,1.5.75,2.1.2,1.2.27,2.43.23,3.67-.05,1.25-.18,2.47-.38,3.67-.2,1.7-.53,3.2-.98,4.5-.45,1.3-.93,2.35-1.42,3.15-.3.8-.45,1.65-.45,2.55,0,.2-.1.7-.3,1.5l-.9,2.25-.45.75c-.1.4-.48,1.07-1.12,2.02-.65.95-1.38,1.92-2.18,2.93-.8,1-1.55,1.88-2.25,2.62-.7.75-1.15,1.12-1.35,1.12-.4,0-.7-.05-.9-.15l-2.85.45-1.65,3.6-6-1.95-1.05,1.5-3.15,1.95-2.85,2.4-7.65-1.8-2.7-1.2-.75.3c-1.4-.2-2.73-.33-3.98-.38-1.25-.05-2.32-.33-3.22-.83l-3-3.3c-.5-.5-.9-1.25-1.2-2.25-.3-1-.6-2.05-.9-3.15-.3-1.1-.6-2.12-.9-3.07-.3-.95-.65-1.68-1.05-2.18-.3-.3-.65-.7-1.05-1.2-.4-.5-.8-1.05-1.2-1.65.1-1.5.27-2.78.52-3.83.25-1.05.62-1.77,1.12-2.17.7-.5,1.6-.4,2.7.3,1.1,1.7,1.92,3.53,2.48,5.48.55,1.95,1.47,3.82,2.77,5.62,1.8,2.7,3.85,4.45,6.15,5.25.2.1.42.15.67.15s.57.05.97.15c.4.1.85.15,1.35.15l3.75.9,4.65.9,4.8-4.5,4.65-.45c.1-.3.27-.63.53-.98.25-.35.52-.67.83-.97.3-.4.6-.78.9-1.12.3-.35.4-.48.3-.38.1-.2.23-.45.38-.75.15-.3.42-.55.83-.75.8-.5,1.9-.75,3.3-.75.5-1.3,1.15-2.33,1.95-3.08.8-.75,1.2-1.52,1.2-2.33,0-1.4.38-2.95,1.12-4.65.75-1.7,1.37-2.9,1.88-3.6l.75-5.7Z"/>
  <path class="cls-1" d="M154.5,62.85c-.6-.6-1.15-1.2-1.65-1.8l-2.7-2.7-3.6-.45-1.5-.15-2.1,2.1-4.05,3.15-3.15,2.1c0,.3.1.75.3,1.35.3.3.6.65.9,1.05.5.7.75,1.35.75,1.95-.2,1-.2,2.15,0,3.45,0,.7.05,1.4.15,2.1l-.6,1.05-2.55,1.2,2.1,3h-.3l-.3.6c-.2.5-.25.85-.15,1.05.2.7.3,1.45.3,2.25v2.4c0,.9-.05,1.85-.15,2.85-.3,3.8-.23,7.58.22,11.33s.57,7.53.38,11.33l.3,2.7c.1.8.15,1.52.15,2.17s-.1,1.22-.3,1.72c.2.5.25,1,.15,1.5.3.8.53,1.67.68,2.62.15.95.27,1.62.38,2.03-.3.3-.73.87-1.28,1.72-.55.85-1.08,1.32-1.58,1.43-.3,0-.65-.05-1.05-.15-.4-.1-.85-.2-1.35-.3-.5-.1-1.05-.25-1.65-.45l-1.5-3.9c0-.5.05-1.05.15-1.65.1-.5.15-1.05.15-1.65s.05-1.25.15-1.95c.2-1.1.27-2.1.22-3-.05-.9-.18-1.45-.38-1.65-.2-.3-.38-.93-.52-1.88-.15-.95-.3-2.03-.45-3.23-.15-1.2-.25-2.45-.3-3.75-.05-1.3.02-2.5.22-3.6.4-2.6.47-4.5.22-5.7-.25-1.2-.28-2.2-.07-3,0-.4-.03-.87-.08-1.42-.05-.55-.08-1.07-.08-1.58-.1-.6-.15-1.2-.15-1.8l2.4-3.15c-.5-.2-.95-.45-1.35-.75-.9-.5-1.35-1.1-1.35-1.8,0-.2.12-.52.38-.97.25-.45.53-.92.83-1.43.3-.5.57-.95.83-1.35.25-.4.42-.7.52-.9l-1.5-.9.6-1.95.45-7.95c-.2-.8-.4-1.6-.6-2.4-.2-.7-.35-1.4-.45-2.1-.1-.7-.05-1.35.15-1.95,0-.6.05-1.3.15-2.1.1-.8.2-1.4.3-1.8-.1-.5,0-1.85.3-4.05l.9-5.1c.2-.9.42-1.9.67-3,.25-1.1.47-2.1.67-3,.2-1.1.4-2.15.6-3.15l.9-1.5c.5-.8.65-1.55.45-2.25-.2-.2-.3-.6-.3-1.2s.1-1.25.3-1.95l.6-2.4.15-.75c.2-.7.27-1.4.22-2.1-.05-.7-.1-1.37-.15-2.02-.05-.65-.05-1.27,0-1.88.05-.6.27-1.2.67-1.8,0-.2.08-.52.22-.98.15-.45.32-.92.53-1.42l.6-1.8,1.05-9,4.65,1.35,2.55,3.3-2.25,5.1-1.8,4.65,1.05,3.75-.9,1.8.15,1.8c.2,1.8.1,3.15-.3,4.05l-1.8,1.05,1.35,4.5c-.3,1.2-.48,1.98-.52,2.33-.05.35-.08.63-.08.82l-.6,1.5-1.65,3.45-.45,2.1-.15,2.7-.9,4.5,3.45-1.35c.8-.7,1.65-1.25,2.55-1.65.8-.4,1.6-.75,2.4-1.05.8-.3,1.55-.5,2.25-.6,1.1.1,2.3-.2,3.6-.9.2-.3.45-.6.75-.9l1.2-1.2,6.45-3.45,3.15-3.45,4.8-4.35c.3-.6.87-1.27,1.73-2.02.85-.75,1.72-1.52,2.62-2.33.4-.4.77-.82,1.12-1.27.35-.45.67-.92.97-1.42.4-.5.7-1,.9-1.5l6.3-7.35c.2-.4.67-.65,1.42-.75.75-.1,1.37-.1,1.88,0,.8.2,1.32.45,1.58.75.25.3.47.6.67.9.1.4.15.75.15,1.05-.3.2-.6.45-.9.75-.2.3-.43.65-.67,1.05-.25.4-.48.85-.67,1.35-.1,1.1-.55,1.95-1.35,2.55-.4.3-.8.5-1.2.6l.3,1.65c-.5.3-.95.65-1.35,1.05-.4.3-.8.65-1.2,1.05-.4.4-.7.85-.9,1.35-.3,0-.55.25-.75.75-.5.6-1.03,1.2-1.58,1.8-.55.6-1.23,1.1-2.03,1.5-.4.3-.7.6-.9.9-.2.3-.4.65-.6,1.05-.2.3-.45.7-.75,1.2-.3.5-.6.85-.9,1.05l-1.05,1.8-3.45,2.85-.75.9-3.15,1.5-1.65,1.05c-.5.3-1.05.9-1.65,1.8-.3.4-.55.85-.75,1.35-.1,0-.15.05-.15.15-.1.1-.15.2-.15.3l2.25,2.1c0,.6.05,1.1.15,1.5.1.4.17.8.23,1.2.05.4.12.75.22,1.05,0,.1.2.5.6,1.2.4.7,1.3,2.4,2.7,5.1.7.7,1.35,1.45,1.95,2.25,1.1,1.4,1.9,2.85,2.4,4.35.1,1.2.45,2.25,1.05,3.15.3.4.55.8.75,1.2,0,.5-.03,1.08-.08,1.73-.05.65-.13,1.23-.22,1.73l2.85,1.5.9.9c.5.5.85.95,1.05,1.35l3,6.6,5.55,7.5.75,2.1c.4.2.7.52.9.97.2.45.4.88.6,1.28.2.4.35.75.45,1.05.1.3.4.65.9,1.05.7.4,1.32.93,1.88,1.58.55.65,1.02,1.23,1.42,1.72.1.5.25.85.45,1.05.5,1,1.2,1.85,2.1,2.55.4.4.8.75,1.2,1.05l-.3,1.65c.3.2.65.45,1.05.75.8.6,1.2,1.45,1.2,2.55.1.6.27,1.17.52,1.72.25.55.47,1.02.67,1.42.3.4.6.8.9,1.2-.9.2-1.75.4-2.55.6-.7.2-1.35.38-1.95.53s-1.05.22-1.35.22l-5.85-8.7c-.2-.6-.45-1.15-.75-1.65-.2-.5-.45-.97-.75-1.42s-.65-.87-1.05-1.28c-1-.8-1.85-1.65-2.55-2.55-.7-.9-1.2-1.65-1.5-2.25l-5.85-8.4c-.3-.5-.55-1.02-.75-1.57-.2-.55-.4-1.07-.6-1.58l-.75-1.8c-.2-.3-.48-.6-.83-.9-.35-.3-.67-.6-.97-.9-.4-.3-.8-.6-1.2-.9-.8-.6-1.55-1.2-2.25-1.8-.6-.5-1.15-1.07-1.65-1.73-.5-.65-.8-1.27-.9-1.88.1-.6,0-1.22-.3-1.88-.3-.65-.6-1.22-.9-1.72-.4-.6-.85-1.25-1.35-1.95l-.15-5.7.15-2.1-2.85-1.05-3.3-3.45-1.5-3.15Z"/>
  <path class="cls-1" d="M250.05,126c-2.3-.7-3.7-1.8-4.2-3.3-.2-.8-.1-1.58.3-2.33.4-.75,1.3-1.42,2.7-2.03.7,0,1.2-.05,1.5-.15,1.4-.1,2.9-.25,4.5-.45,1.6-.2,3.1-.4,4.5-.6.2,0,.35-.03.45-.07.1-.05.3-.08.6-.08l3-.45,3.45-.9c0-.7.15-1.3.45-1.8.2-.3.4-.5.6-.6l-.75-1.35.75-1.5c.2-.5.4-1,.6-1.5.2-.5.35-1,.45-1.5.2-.4.25-.85.15-1.35.2-.5.45-1.17.75-2.03.3-.85.65-1.62,1.05-2.32.3-.4.47-.75.52-1.05.05-.3.12-.7.23-1.2-.1-.4-.1-.85,0-1.35.1-.5.25-.95.45-1.35l.15-2.1,2.1-9.9v-.45c0-.3.1-.85.3-1.65.1-.4.25-.8.45-1.2l1.95-2.55c-.2-.4-.48-.9-.83-1.5-.35-.6-.62-1.1-.82-1.5.1-.5.15-1,.15-1.5,0-1-.15-2.1-.45-3.3-.2-.7-.22-1.5-.07-2.4.15-.9.32-1.75.52-2.55.2-1,.45-1.95.75-2.85l.45-6,2.55-9.3c.2-.8.3-1.55.3-2.25v-1.2l-.3-2.55c-.5-1.3-.55-2.35-.15-3.15.4-.8.5-1.8.3-3,0-.2-.03-.4-.08-.6-.05-.2-.08-.45-.08-.75v-.45l1.5-1.5-1.5-4.05v-7.05c0-.6-.05-1-.15-1.2-.5-.1-.9-.15-1.2-.15s-.55-.05-.75-.15c-.2-.1-.63-.12-1.28-.07-.65.05-1.12-.02-1.42-.23-1.1-.8-2.13-1.35-3.08-1.65-.95-.3-2.38-.55-4.27-.75-.7-.3-1.1-.8-1.2-1.5-.2-.6.15-1.5,1.05-2.7,1.4-.2,2.92-.42,4.58-.67,1.65-.25,3.27-.53,4.88-.83,1.6-.3,3.05-.55,4.35-.75,1.3-.2,2.3-.3,3-.3.9.2,1.82.43,2.78.67.95.25,1.88.78,2.77,1.58.8.4,1.6.8,2.4,1.2.7.3,1.37.58,2.03.83.65.25,1.12.48,1.42.67.2.1.7.25,1.5.45.4.1.75.25,1.05.45.9,1.1,1.58,1.98,2.03,2.62.45.65.72,1.33.82,2.03.2,1.7.1,2.9-.3,3.6-.2.3-.48.5-.83.6-.35.1-.88-.05-1.57-.45l-3-1.95c-.7-.3-1.35-.55-1.95-.75l-1.2-.3-2.4-.75-3.3-.45h-.15l.6,2.1c.2,0,.35.2.45.6.1.6.1,1.95,0,4.05v18c-.2.8-.2,1.45,0,1.95,0,.4.05.7.15.9-.5,1.6-.8,3.1-.9,4.5-.1,1.4-.15,2.45-.15,3.15l-1.35,3.75-1.05,5.7.3,8.25v6.15c0,.5-.13,1.12-.38,1.88-.25.75-.48,1.53-.67,2.32-.3.9-.6,1.8-.9,2.7-.3.5-.55.95-.75,1.35-.5.8-.75,1.55-.75,2.25l-.6,1.2-1.8,8.7c-.1.8-.35,1.72-.75,2.78-.4,1.05-.9,2.12-1.5,3.22-.2.5-.35,1.03-.45,1.58-.1.55-.2,1.08-.3,1.58-.1.5-.15,1.05-.15,1.65l-.75,3.45h2.85c.3,0,.8.12,1.5.38.7.25,1.3.47,1.8.67.4-.2,1.02-.38,1.88-.52.85-.15,1.75-.25,2.7-.3.95-.05,1.85-.07,2.7-.07h1.72c1,0,1.85.25,2.55.75.7.5,1.27,1.1,1.72,1.8.45.7.8,1.45,1.05,2.25.25.8.38,1.5.38,2.1l-2.25,1.35-12.75-.45c-1.1.2-2.17.45-3.22.75s-2.23.85-3.53,1.65l-1.65.6-4.5.15-2.1.15-2.1-.3-1.95.6-2.4-.3-2.55.3-2.25-.3c-.4,0-.8.02-1.2.08-.4.05-.95.12-1.65.22l-.9.15Z"/>
  <path class="cls-1" d="M363.6,121.05c-.5-1.1-.95-2.03-1.35-2.78-.4-.75-.65-1.42-.75-2.02,0-1,.4-1.9,1.2-2.7l1.2-1.35c.1-1.1.2-2.07.3-2.93.1-.85.05-1.37-.15-1.57-.4-.7-.5-1.5-.3-2.4.2-.9.4-1.75.6-2.55.5-2.5.77-4.37.83-5.62.05-1.25.17-2.27.38-3.08-.1-.4-.18-.85-.22-1.35-.05-.5-.13-1-.23-1.5-.1-.5-.2-1.05-.3-1.65l2.1-3.45c-.5-.2-.95-.45-1.35-.75-.9-.5-1.35-1.05-1.35-1.65.1-.5.42-1.35.97-2.55.55-1.2.92-1.95,1.12-2.25l-1.5-.75.45-2.1c0-1-.03-2.3-.08-3.9-.05-1.6-.08-2.95-.08-4.05-.3-.8-.55-1.55-.75-2.25-.5-1.4-.7-2.7-.6-3.9v-2.17c0-.85.05-1.47.15-1.88-.2-.8-.15-2.15.15-4.05l.45-5.1c.2-1,.32-2.07.38-3.23.05-1.15.17-2.18.38-3.08.1-1.1.25-2.15.45-3.15.4-.8.6-1.58.6-2.33v-1.88l-.75-.9c0-.7.2-1.55.6-2.55.2-.4.35-.85.45-1.35l.45-.6c.4-1.1.7-2.45.9-4.05.2-1.6.5-2.8.9-3.6.1-.2.27-.5.53-.9.25-.4.47-.85.67-1.35l.9-1.8,2.4-8.7,4.5,2.1,1.8,3.75-3,4.65-2.4,4.35.3,3.75c-.2.5-.35.95-.45,1.35-.2.4-.33.8-.38,1.2-.05.4-.13.7-.22.9-.2.9-.38,1.68-.53,2.33-.15.65-.33,1.18-.52,1.58l1.2,3.9c-.2,1.2-.33,1.98-.38,2.32-.05.35-.07.63-.07.83s-.03.35-.08.45c-.05.1-.18.45-.38,1.05l-1.35,3.6-.3,2.1v2.7l-.6,6.75-.3,3.6-.45.9c.2.8.35,1.58.45,2.33.1.75.25,1.53.45,2.32.3.2.6.5.9.9.6.8.9,1.45.9,1.95-.2.5-.25,1.05-.15,1.65.1.6.2,1.2.3,1.8.1.7.25,1.4.45,2.1l-.6,1.05-1.65,1.5,1.05,2.85c-.1.2-.15.4-.15.6-.1.2-.15.55-.15,1.05.2.6.35,1.33.45,2.17.1.85.2,1.68.3,2.48v2.85c.1,2.3-.18,4.7-.83,7.2-.65,2.5-.93,4.9-.83,7.2.1.9.2,1.75.3,2.55.1.7.12,1.4.07,2.1-.05.7-.13,1.25-.22,1.65.2.5.3,1.05.3,1.65l9.15-.3c.3,0,1.02.02,2.17.08,1.15.05,1.97.22,2.47.53.3-.1.88-.2,1.73-.3.85-.1,1.82-.18,2.92-.22,1.1-.05,2.2-.05,3.3,0,1.1.05,2,.08,2.7.08l-.15-.75c-.1-.2-.18-.45-.22-.75-.05-.3-.13-.6-.22-.9-.1-.4-.15-.75-.15-1.05.2-.8.53-1.58.97-2.33.45-.75.92-1.37,1.43-1.88,1.3-1,2.35-1.55,3.15-1.65.9,0,1.4.65,1.5,1.95l-.15,3.6c0,.8.15,1.5.45,2.1.1.4.25.75.45,1.05l.75,6.6c.1.5.17.92.23,1.27.05.35.07.72.07,1.12l-2.4,1.2-17.1-1.65h-2.62c-1.15,0-2.4.02-3.75.07-1.35.05-2.62.15-3.82.3-1.2.15-2.15.38-2.85.67l-1.65.45h-2.55l-1.65-.3-1.65-1.35Z"/>
  <path class="cls-1" d="M468,121.05c-.5-1.1-.95-2.03-1.35-2.78-.4-.75-.65-1.42-.75-2.02,0-1,.4-1.9,1.2-2.7l1.2-1.35c.1-1.1.2-2.07.3-2.93.1-.85.05-1.37-.15-1.57-.4-.7-.5-1.5-.3-2.4.2-.9.4-1.75.6-2.55.5-2.5.77-4.37.83-5.62.05-1.25.17-2.27.38-3.08-.1-.4-.18-.85-.22-1.35-.05-.5-.13-1-.23-1.5-.1-.5-.2-1.05-.3-1.65l2.1-3.45c-.5-.2-.95-.45-1.35-.75-.9-.5-1.35-1.05-1.35-1.65.1-.5.42-1.35.97-2.55.55-1.2.92-1.95,1.12-2.25l-1.5-.75.45-2.1c0-1-.03-2.3-.08-3.9-.05-1.6-.08-2.95-.08-4.05-.3-.8-.55-1.55-.75-2.25-.5-1.4-.7-2.7-.6-3.9v-2.17c0-.85.05-1.47.15-1.88-.2-.8-.15-2.15.15-4.05l.45-5.1c.2-1,.32-2.07.38-3.23.05-1.15.17-2.18.38-3.08.1-1.1.25-2.15.45-3.15.4-.8.6-1.58.6-2.33v-1.88l-.75-.9c0-.7.2-1.55.6-2.55.2-.4.35-.85.45-1.35l.45-.6c.4-1.1.7-2.45.9-4.05.2-1.6.5-2.8.9-3.6.1-.2.27-.5.53-.9.25-.4.47-.85.67-1.35l.9-1.8,2.4-8.7,4.5,2.1,1.8,3.75-3,4.65-2.4,4.35.3,3.75c-.2.5-.35.95-.45,1.35-.2.4-.33.8-.38,1.2-.05.4-.13.7-.22.9-.2.9-.38,1.68-.53,2.33-.15.65-.33,1.18-.52,1.58l1.2,3.9c-.2,1.2-.33,1.98-.38,2.32-.05.35-.07.63-.07.83s-.03.35-.08.45c-.05.1-.18.45-.38,1.05l-1.35,3.6-.3,2.1v2.7l-.6,6.75-.3,3.6-.45.9c.2.8.35,1.58.45,2.33.1.75.25,1.53.45,2.32.3.2.6.5.9.9.6.8.9,1.45.9,1.95-.2.5-.25,1.05-.15,1.65.1.6.2,1.2.3,1.8.1.7.25,1.4.45,2.1l-.6,1.05-1.65,1.5,1.05,2.85c-.1.2-.15.4-.15.6-.1.2-.15.55-.15,1.05.2.6.35,1.33.45,2.17.1.85.2,1.68.3,2.48v2.85c.1,2.3-.18,4.7-.83,7.2-.65,2.5-.93,4.9-.83,7.2.1.9.2,1.75.3,2.55.1.7.12,1.4.07,2.1-.05.7-.13,1.25-.22,1.65.2.5.3,1.05.3,1.65l9.15-.3c.3,0,1.02.02,2.17.08,1.15.05,1.97.22,2.47.53.3-.1.88-.2,1.73-.3.85-.1,1.82-.18,2.92-.22,1.1-.05,2.2-.05,3.3,0,1.1.05,2,.08,2.7.08l-.15-.75c-.1-.2-.18-.45-.22-.75-.05-.3-.13-.6-.22-.9-.1-.4-.15-.75-.15-1.05.2-.8.53-1.58.97-2.33.45-.75.92-1.37,1.43-1.88,1.3-1,2.35-1.55,3.15-1.65.9,0,1.4.65,1.5,1.95l-.15,3.6c0,.8.15,1.5.45,2.1.1.4.25.75.45,1.05l.75,6.6c.1.5.17.92.23,1.27.05.35.07.72.07,1.12l-2.4,1.2-17.1-1.65h-2.62c-1.15,0-2.4.02-3.75.07-1.35.05-2.62.15-3.82.3-1.2.15-2.15.38-2.85.67l-1.65.45h-2.55l-1.65-.3-1.65-1.35Z"/>
  <path class="cls-1" d="M613.35,92.7v-1.5c0-.8-.38-1.7-1.12-2.7-.75-1-1.28-1.9-1.58-2.7-2.5-1.8-4.5-3.25-6-4.35-1.5-1.1-2.88-2.1-4.12-3-1.25-.9-1.88-1.4-1.88-1.5l-2.25-.6c-1.2-.4-1.85-1.05-1.95-1.95l-1.35-1.8c-.5-.1-1.03-.35-1.58-.75-.55-.4-1.03-.9-1.42-1.5-.2-.2-.58-.65-1.12-1.35-.55-.7-1.15-1.43-1.8-2.18-.65-.75-1.2-1.5-1.65-2.25s-.63-1.32-.52-1.73l-4.2-1.05-3.45-1.65c-.1-.4-.15-.8-.15-1.2-.1-.5-.15-1.45-.15-2.85-.5-1.1-1.1-2.02-1.8-2.77-.7-.75-1.15-1.67-1.35-2.77-.5-1.2-1.05-2.48-1.65-3.83-.6-1.35-.9-2.72-.9-4.12,0-.2.17-.7.53-1.5.35-.8.7-1.67,1.05-2.62.35-.95.7-1.82,1.05-2.62.35-.8.53-1.3.53-1.5v-.6c.2-.3.42-.72.67-1.28.25-.55.57-1.07.97-1.57.4-.6.85-1.3,1.35-2.1l.6-1.35.45-1.8c.1-.6.47-1.25,1.12-1.95.65-.7,1.02-1.3,1.12-1.8v-1.2c0-.7.1-1.35.3-1.95.4-.6,1.35-1.35,2.85-2.25,1.5-.9,2.6-1.5,3.3-1.8l.15-.45,2.85-3,3.9-1.8c.3,0,.6.03.9.08.3.05.55.07.75.07.6,0,1.2-.02,1.8-.07.6-.05,1.15-.08,1.65-.08h4.35c.1.1.4.15.9.15h1.5c.6,0,1.3.05,2.1.15l11.25,2.25c.6.2,1.12.48,1.58.82.45.35.77.73.97,1.12,1.1,2.7,1.45,4.65,1.05,5.85-.5,1.4-2.1,1.75-4.8,1.05-.8-.4-1.55-.95-2.25-1.65-.7-.7-1.45-1.15-2.25-1.35-.4-.2-1-.38-1.8-.52-.8-.15-1.63-.25-2.47-.3-.85-.05-1.63-.1-2.33-.15-.7-.05-1.15-.08-1.35-.08s-.45.03-.75.08c-.3.05-.7.07-1.2.07-1.1,0-1.93-.02-2.48-.07-.55-.05-.88-.08-.97-.08-.4,0-.85.33-1.35.98-.5.65-.95,1.08-1.35,1.27l-1.8.75c-.2.2-.45.43-.75.67-.3.25-.55.38-.75.38l-3,2.7c-.2.2-.5.45-.9.75-.4.3-.8.65-1.2,1.05-.4.4-.9.85-1.5,1.35l-1.5,1.5c-.2.2-.4.35-.6.45-.2.2-.38.33-.53.38-.15.05-.28.18-.38.38-1.5,1.9-2.65,4-3.45,6.3-.5,1.4-1,2.58-1.5,3.52-.5.95-.9,1.98-1.2,3.08l3.3,9.3c.6,1.7,1.25,2.88,1.95,3.53.7.65,1.3,1.12,1.8,1.42l.6.6c.1.4.38.78.83,1.12.45.35.92.67,1.42.98.6.4,1.25.75,1.95,1.05l6.6,9.75,1.8.6c.5.5,1.45,1,2.85,1.5,1.4.5,2.35.95,2.85,1.35l12.75,10.05c.1.3.3.8.6,1.5.3.7.6,1.48.9,2.33.3.85.6,1.68.9,2.47.3.8.55,1.5.75,2.1.2,1.2.27,2.43.23,3.67-.05,1.25-.18,2.47-.38,3.67-.2,1.7-.53,3.2-.98,4.5-.45,1.3-.93,2.35-1.42,3.15-.3.8-.45,1.65-.45,2.55,0,.2-.1.7-.3,1.5l-.9,2.25-.45.75c-.1.4-.48,1.07-1.12,2.02-.65.95-1.38,1.92-2.18,2.93-.8,1-1.55,1.88-2.25,2.62-.7.75-1.15,1.12-1.35,1.12-.4,0-.7-.05-.9-.15l-2.85.45-1.65,3.6-6-1.95-1.05,1.5-3.15,1.95-2.85,2.4-7.65-1.8-2.7-1.2-.75.3c-1.4-.2-2.73-.33-3.98-.38-1.25-.05-2.32-.33-3.22-.83l-3-3.3c-.5-.5-.9-1.25-1.2-2.25-.3-1-.6-2.05-.9-3.15-.3-1.1-.6-2.12-.9-3.07-.3-.95-.65-1.68-1.05-2.18-.3-.3-.65-.7-1.05-1.2-.4-.5-.8-1.05-1.2-1.65.1-1.5.27-2.78.52-3.83.25-1.05.62-1.77,1.12-2.17.7-.5,1.6-.4,2.7.3,1.1,1.7,1.92,3.53,2.48,5.48.55,1.95,1.47,3.82,2.77,5.62,1.8,2.7,3.85,4.45,6.15,5.25.2.1.42.15.67.15s.57.05.97.15c.4.1.85.15,1.35.15l3.75.9,4.65.9,4.8-4.5,4.65-.45c.1-.3.27-.63.53-.98.25-.35.52-.67.83-.97.3-.4.6-.78.9-1.12.3-.35.4-.48.3-.38.1-.2.23-.45.38-.75.15-.3.42-.55.83-.75.8-.5,1.9-.75,3.3-.75.5-1.3,1.15-2.33,1.95-3.08.8-.75,1.2-1.52,1.2-2.33,0-1.4.38-2.95,1.12-4.65.75-1.7,1.37-2.9,1.88-3.6l.75-5.7Z"/>
</svg>