<svg width="527" height="789" viewBox="0 0 527 789" fill="none" xmlns="http://www.w3.org/2000/svg">
<g clip-path="url(#clip0_2556_94)">
<path d="M131.774 789C204.486 789 263.498 730.088 263.498 657.5V526H131.774C59.063 526 0.0507812 584.912 0.0507812 657.5C0.0507812 730.088 59.063 789 131.774 789Z" fill="#0ACF83"/>
<path d="M0.0507812 394.5C0.0507812 321.912 59.063 263 131.774 263H263.498V526H131.774C59.063 526 0.0507812 467.088 0.0507812 394.5Z" fill="#A259FF"/>
<path d="M0.0507812 131.5C0.0507812 58.912 59.063 0 131.774 0H263.498V263H131.774C59.063 263 0.0507812 204.088 0.0507812 131.5Z" fill="#F24E1E"/>
<path d="M263.5 0H395.224C467.935 0 526.947 58.912 526.947 131.5C526.947 204.088 467.935 263 395.224 263H263.5V0Z" fill="#FF7262"/>
<path d="M526.947 394.5C526.947 467.088 467.935 526 395.224 526C322.512 526 263.5 467.088 263.5 394.5C263.5 321.912 322.512 263 395.224 263C467.935 263 526.947 321.912 526.947 394.5Z" fill="#1ABCFE"/>
</g>
<defs>
<clipPath id="clip0_2556_94">
<rect width="527" height="789" fill="white"/>
</clipPath>
</defs>
</svg>
